<svg width="220" height="6" viewBox="0 0 220 6" fill="none" xmlns="http://www.w3.org/2000/svg">
<path id="Line 2" d="M0.333333 3C0.333333 4.47276 1.52724 5.66667 3 5.66667C4.47276 5.66667 5.66667 4.47276 5.66667 3C5.66667 1.52724 4.47276 0.333333 3 0.333333C1.52724 0.333333 0.333333 1.52724 0.333333 3ZM214.333 3C214.333 4.47276 215.527 5.66667 217 5.66667C218.473 5.66667 219.667 4.47276 219.667 3C219.667 1.52724 218.473 0.333333 217 0.333333C215.527 0.333333 214.333 1.52724 214.333 3ZM3 3.5H217V2.5H3V3.5Z" fill="black"/>
</svg>
