<svg width="100" height="100" viewBox="0 0 100 100" fill="none" xmlns="http://www.w3.org/2000/svg">
<path d="M87.2 56.7C88.3 54.5 89 52.1 89 49.5C89 42.9 84.8 37.2 79 35C79 23.4 69.6 14 58 14C48.2 14 40 20.7 37.7 29.8C36.2 29.3 34.7 29 33 29C25.3 29 19 34.8 18.1 42.3C12.9 43.4 9 48 9 53.5C9 59.9 14.1 65 20.5 65C20.7 65 20.9 65 21 65C21 65.2 21 65.3 21 65.5C21 76.8 30.2 86 41.5 86C47.9 86 53.7 83 57.4 78.4C59.6 80.6 62.6 82 66 82C70.7 82 74.7 79.3 76.7 75.5C77.8 75.8 78.9 76 80 76C86.1 76 91 71.1 91 65C91 61.7 89.5 58.7 87.2 56.7Z" fill="#C7EDE6"/>
<path d="M79.9 64.5C79.9 64.5 83.5 64.5 86 64.5C88.5 64.5 90.5 62.5 90.5 60C90.5 57.7 88.7 55.8 86.4 55.5C86.4 55.3 86.5 55.1 86.5 55C86.5 52.5 84.5 50.5 82 50.5C80.6 50.5 79.3 51.2 78.5 52.2C78.4 49.6 76.2 47.5 73.5 47.5C70.7 47.5 68.5 49.7 68.5 52.5C68.5 52.9 68.6 53.4 68.7 53.8C68 53 67.1 52.5 66 52.5C64.2 52.5 62.8 53.8 62.5 55.6C62.3 55.6 62.1 55.5 62 55.5C59.5 55.5 57.5 57.5 57.5 60C57.5 62.5 59.5 64.5 62 64.5C64.5 64.5 71.5 64.5 71.5 64.5H76.9V65H79.9V64.5Z" fill="#FDFCEF"/>
<path d="M73.5 47C70.5 47 68 49.5 68 52.5C67.4 52.1 66.7 52 66 52C64.2 52 62.6 53.3 62.1 55H62C59.2 55 57 57.2 57 60C57 62.8 59.2 65 62 65H76.9C77.2 65 77.4 64.8 77.4 64.5C77.4 64.2 77.2 64 76.9 64H62C59.8 64 58 62.2 58 60C58 57.8 59.8 56 62 56C62.1 56 62.2 56 62.3 56H62.4C62.4 56 62.4 56 62.5 56C62.7 56 63 55.8 63 55.6C63.2 54.1 64.5 53 66 53C66.9 53 67.7 53.4 68.3 54.1C68.4 54.2 68.5 54.3 68.7 54.3C68.8 54.3 68.9 54.3 68.9 54.2C69.1 54.1 69.2 53.9 69.2 53.6C69.1 53.2 69 52.8 69 52.4C69 49.9 71 47.9 73.5 47.9C75.9 47.9 77.8 49.8 78 52.2C78 52.4 78.2 52.6 78.3 52.7C78.4 52.7 78.4 52.7 78.5 52.7C78.7 52.7 78.8 52.6 78.9 52.5C79.7 51.5 80.8 51 82 51C84.2 51 86 52.8 86 55C86 55.1 86 55.2 86 55.3V55.4C86 55.5 86 55.7 86.1 55.8C86.2 55.9 86.3 56 86.4 56C88.5 56.2 90 57.9 90 60C90 62.2 88.2 64 86 64H79.9C79.6 64 79.4 64.2 79.4 64.5C79.4 64.8 79.6 65 79.9 65H86C88.8 65 91 62.8 91 60C91 57.6 89.3 55.6 87 55.1V55C87 52.2 84.8 50 82 50C80.8 50 79.7 50.4 78.8 51.2C78.2 48.8 76.1 47 73.5 47Z" fill="#472B29"/>
<path d="M72 54C70.6 54 69.4 55 69.1 56.3C68.7 56.1 68.3 56 67.9 56C66.7 56 65.7 56.9 65.5 58.1C65.3 58.1 65.1 58 64.9 58C63.4 58 62.1 59.2 62 60.7C62 60.8 62.1 61 62.2 61C62.3 61 62.4 60.9 62.4 60.8C62.5 59.5 63.6 58.5 64.8 58.5C65 58.5 65.3 58.5 65.5 58.6C65.5 58.6 65.5 58.6 65.6 58.6C65.7 58.6 65.7 58.6 65.8 58.5C65.9 58.5 65.9 58.4 65.9 58.3C65.9 57.3 66.7 56.4 67.8 56.4C68.2 56.4 68.7 56.6 69 56.9C69 56.9 69.1 57 69.2 57H69.3C69.4 57 69.4 56.9 69.5 56.8C69.6 55.5 70.7 54.5 72 54.5C72.2 54.5 72.4 54.5 72.7 54.6C72.7 54.6 72.7 54.6 72.8 54.6C72.9 54.6 73 54.5 73 54.4C73 54.3 73 54.1 72.8 54.1C72.5 54 72.3 54 72 54ZM85.9 55.5C84.6 55.5 83.4 56.4 83 57.7C83 57.8 83 58 83.2 58C83.2 58 83.2 58 83.3 58C83.4 58 83.5 57.9 83.5 57.8C83.8 56.7 84.8 56 85.9 56C86 56 86.1 56 86.2 56C86.3 56 86.4 55.9 86.4 55.8C86.4 55.7 86.3 55.5 86.2 55.5C86.2 55.5 86 55.5 85.9 55.5Z" fill="#472B29"/>
<path d="M15.4 51H5.5C5.2 51 5 50.8 5 50.5C5 50.2 5.2 50 5.5 50H15.4C15.7 50 15.9 50.2 15.9 50.5C15.9 50.8 15.7 51 15.4 51ZM18.5 51H17.5C17.2 51 17 50.8 17 50.5C17 50.2 17.2 50 17.5 50H18.5C18.8 50 19 50.2 19 50.5C19 50.8 18.8 51 18.5 51ZM23.5 53H14.5C14.2 53 14 52.8 14 52.5C14 52.2 14.2 52 14.5 52H23.5C23.8 52 24 52.2 24 52.5C24 52.8 23.8 53 23.5 53ZM12.5 53H11.5C11.2 53 11 52.8 11 52.5C11 52.2 11.2 52 11.5 52H12.5C12.8 52 13 52.2 13 52.5C13 52.8 12.8 53 12.5 53ZM9.5 53H7.5C7.2 53 7 52.8 7 52.5C7 52.2 7.2 52 7.5 52H9.5C9.8 52 10 52.2 10 52.5C10 52.8 9.8 53 9.5 53ZM15.5 55H13.5C13.2 55 13 54.8 13 54.5C13 54.2 13.2 54 13.5 54H15.5C15.8 54 16 54.2 16 54.5C16 54.8 15.8 55 15.5 55ZM18.5 46C18.3 46 17.7 46 17.5 46C17.2 46 17 46.2 17 46.5C17 46.8 17.2 47 17.5 47C17.7 47 18.3 47 18.5 47C18.8 47 19 46.8 19 46.5C19 46.2 18.8 46 18.5 46ZM18.5 48C18.3 48 13.7 48 13.5 48C13.2 48 13 48.2 13 48.5C13 48.8 13.2 49 13.5 49C13.7 49 18.3 49 18.5 49C18.8 49 19 48.8 19 48.5C19 48.2 18.8 48 18.5 48ZM23.5 50C23.3 50 20.7 50 20.5 50C20.2 50 20 50.2 20 50.5C20 50.8 20.2 51 20.5 51C20.7 51 23.3 51 23.5 51C23.8 51 24 50.8 24 50.5C24 50.2 23.8 50 23.5 50Z" fill="white"/>
<path d="M67.5 22H57.5C57.2 22 57 21.8 57 21.5C57 21.2 57.2 21 57.5 21H67.5C67.8 21 68 21.2 68 21.5C68 21.8 67.8 22 67.5 22ZM71.5 22H69.5C69.2 22 69 21.8 69 21.5C69 21.2 69.2 21 69.5 21H71.5C71.8 21 72 21.2 72 21.5C72 21.8 71.8 22 71.5 22ZM76.5 24H66.5C66.2 24 66 23.8 66 23.5C66 23.2 66.2 23 66.5 23H76.5C76.8 23 77 23.2 77 23.5C77 23.8 76.8 24 76.5 24ZM64.5 24H63.5C63.2 24 63 23.8 63 23.5C63 23.2 63.2 23 63.5 23H64.5C64.8 23 65 23.2 65 23.5C65 23.8 64.8 24 64.5 24ZM61.4 24H59.5C59.2 24 59 23.8 59 23.5C59 23.2 59.2 23 59.5 23H61.4C61.7 23 61.9 23.2 61.9 23.5C61.9 23.8 61.7 24 61.4 24ZM70.5 20H65.5C65.2 20 65 19.8 65 19.5C65 19.2 65.2 19 65.5 19H70.5C70.8 19 71 19.2 71 19.5C71 19.8 70.8 20 70.5 20ZM67.5 26H65.5C65.2 26 65 25.8 65 25.5C65 25.2 65.2 25 65.5 25H67.5C67.8 25 68 25.2 68 25.5C68 25.8 67.8 26 67.5 26Z" fill="white"/>
<path d="M31.4 69H30.5C30.2 69 30 68.8 30 68.5C30 68.2 30.2 68 30.5 68H31.4C31.7 68 31.9 68.2 31.9 68.5C31.9 68.8 31.7 69 31.4 69Z" fill="#472B29"/>
<path d="M72.4006 44.3V63.8C72.4006 67.9 69.0006 71.3 64.9006 71.3H37.1006C33.0006 71.3 29.6006 67.9 29.6006 63.8V36.2C29.6006 32.1 33.0006 28.7 37.1006 28.7H64.9006C68.3006 28.7 71.2006 31 72.1006 34.2" fill="#284B63"/>
<path d="M64.9004 72H37.1004C32.6004 72 28.9004 68.3 28.9004 63.8V36.2C28.9004 31.7 32.6004 28 37.1004 28H64.9004C68.6004 28 71.8004 30.5 72.8004 34C72.9004 34.4 72.7004 34.8 72.3004 34.9C71.9004 35 71.5004 34.8 71.4004 34.4C70.6004 31.5 67.9004 29.4 64.9004 29.4H37.1004C33.4004 29.4 30.3004 32.4 30.3004 36.2V63.7C30.3004 67.4 33.3004 70.5 37.1004 70.5H64.9004C68.6004 70.5 71.7004 67.5 71.7004 63.7V44.3C71.7004 43.9 72.0004 43.6 72.4004 43.6C72.8004 43.6 73.1004 43.9 73.1004 44.3V63.8C73.1004 68.3 69.4004 72 64.9004 72Z" fill="#472B29"/>
<path d="M68.5 58.9C68.2 58.9 68 58.7 68 58.4V54.7C68 54.4 68.2 54.2 68.5 54.2C68.8 54.2 69 54.4 69 54.7V58.4C69 58.7 68.8 58.9 68.5 58.9Z" fill="#472B29"/>
<path d="M68.5 52.4C68.2 52.4 68 52.2 68 51.9V50C68 49.7 68.2 49.5 68.5 49.5C68.8 49.5 69 49.7 69 50V51.9C69 52.2 68.8 52.4 68.5 52.4Z" fill="#472B29"/>
<path d="M64.2 67.9H37.8C35.2 67.9 33 65.8 33 63.2V36.7C33 34.1 35.1 32 37.8 32H61.8C62.1 32 62.3 32.2 62.3 32.5C62.3 32.8 62 33 61.8 33H37.8C35.7 33 34 34.7 34 36.7V63.1C34 65.2 35.7 66.8 37.8 66.8H64.3C66.4 66.8 68.1 65.1 68.1 63.1V60.9C68.1 60.6 68.3 60.4 68.6 60.4C68.9 60.4 69.1 60.6 69.1 60.9V63.1C69 65.8 66.9 67.9 64.2 67.9Z" fill="#472B29"/>
<path d="M50.7998 61.5C50.6998 61.5 50.5998 61.5 50.5998 61.5C50.1998 61.5 49.8998 61.4 49.5998 61.1L41.6998 53.4C41.3998 53.1 41.2998 52.8 41.2998 52.4C41.2998 52 41.3998 51.7 41.6998 51.4C41.9998 51.1 42.2998 51 42.6998 51C43.0998 51 43.3998 51.1 43.6998 51.4L50.4998 58.4L73.2998 36.6C73.5998 36.3 73.8998 36.2 74.2998 36.2C74.6998 36.2 74.9998 36.3 75.2998 36.6C75.5998 36.9 75.6998 37.2 75.6998 37.6C75.6998 38 75.5998 38.3 75.2998 38.6L51.8998 61.1C51.7998 61.2 51.6998 61.3 51.4998 61.4C51.4998 61.4 51.3998 61.4 51.3998 61.5C51.2998 61.5 51.1998 61.5 51.0998 61.6C50.9998 61.5 50.8998 61.5 50.7998 61.5Z" fill="white"/>
<path d="M74.2002 36.6C74.4002 36.6 74.7002 36.7 74.9002 36.9C75.3002 37.3 75.3002 37.8 74.9002 38.2L51.5002 60.7C51.4002 60.8 51.3002 60.8 51.3002 60.9H51.2002C51.1002 60.9 51.1002 60.9 51.0002 60.9H50.9002H50.8002C50.7002 60.9 50.7002 60.9 50.6002 60.9C50.4002 60.9 50.1002 60.8 50.0002 60.6L42.0002 53C41.6002 52.6 41.6002 52.1 42.0002 51.7C42.2002 51.5 42.4002 51.4 42.7002 51.4C43.0002 51.4 43.2002 51.5 43.4002 51.7L50.5002 59L73.6002 36.8C73.8002 36.7 74.0002 36.6 74.2002 36.6ZM74.2002 35.6C73.7002 35.6 73.2002 35.8 72.8002 36.2L50.5002 57.6L44.1002 51C43.7002 50.6 43.2002 50.4 42.7002 50.4C42.2002 50.4 41.7002 50.6 41.3002 51C40.9002 51.4 40.7002 51.8 40.7002 52.4C40.7002 52.9 40.9002 53.4 41.3002 53.8L49.2002 61.5C49.6002 61.8 50.0002 62 50.5002 62H50.6002C50.7002 62 50.7002 62 50.8002 62C50.9002 62 51.0002 62 51.1002 62C51.2002 62 51.3002 62 51.4002 61.9C51.5002 61.9 51.6002 61.8 51.6002 61.8C51.8002 61.7 52.0002 61.6 52.1002 61.4L75.5002 38.8C75.9002 38.4 76.1002 38 76.1002 37.4C76.1002 36.8 75.9002 36.4 75.5002 36C75.2002 35.8 74.8002 35.6 74.2002 35.6Z" fill="#472B29"/>
<path d="M37.5 76.5C37.5 76.5 39.1 76.5 41 76.5C42.9 76.5 44.5 74.9 44.5 73C44.5 71.2 43.2 69.8 41.4 69.5C41.4 69.3 41.5 69.1 41.5 69C41.5 67.1 39.9 65.5 38 65.5C37 65.5 36 66 35.4 66.7C35 64.9 33.4 63.5 31.5 63.5C29.3 63.5 27.5 65.3 27.5 67.5C27.5 67.7 27.5 67.9 27.6 68.1C27.2 67.8 26.6 67.5 26 67.5C24.8 67.5 23.8 68.4 23.5 69.6C23.3 69.6 23.1 69.5 23 69.5C21.1 69.5 19.5 71.1 19.5 73C19.5 74.9 21.1 76.5 23 76.5C24.9 76.5 30.5 76.5 30.5 76.5V77H37.5V76.5Z" fill="#FDFCEF"/>
<path d="M39.3 72C39.2 72 39 71.9 39 71.7C39 70.5 40 69.5 41.2 69.5C41.2 69.5 41.9 69.5 42.4 69.6C42.5 69.6 42.6 69.8 42.6 69.9C42.6 70 42.4 70.1 42.3 70.1C41.9 70 41.2 70 41.2 70C40.3 70 39.5 70.8 39.5 71.7C39.5 71.9 39.4 72 39.3 72ZM32.5 76C32.2239 76 32 76.2239 32 76.5C32 76.7761 32.2239 77 32.5 77C32.7761 77 33 76.7761 33 76.5C33 76.2239 32.7761 76 32.5 76Z" fill="#472B29"/>
<path d="M41 77H37.5C37.2 77 37 76.8 37 76.5C37 76.2 37.2 76 37.5 76H41C42.7 76 44 74.7 44 73C44 71.5 42.9 70.2 41.4 70C41.3 70 41.1 69.9 41.1 69.8C41.1 69.7 41 69.6 41 69.4C41 69.2 41 69.1 41 68.9C41 67.2 39.7 65.9 38 65.9C37.2 65.9 36.4 66.3 35.8 66.9C35.7 67 35.5 67.1 35.3 67C35.1 67 35 66.8 34.9 66.6C34.6 65 33.1 63.8 31.5 63.8C29.6 63.8 28 65.4 28 67.3C28 67.4 28 67.6 28 67.7C28 67.9 27.9 68.1 27.8 68.2C27.7 68.3 27.4 68.3 27.2 68.2C26.9 68.2 26.4 68 26 68C25 68 24.2 68.7 24 69.6C24 69.9 23.7 70 23.4 70C23.2 70 23.1 70 22.9 70C21.2 70 19.9 71.3 19.9 73C19.9 74.7 21.2 76 22.9 76H30.4C30.7 76 30.9 76.2 30.9 76.5C30.9 76.8 30.8 77 30.5 77H23C20.8 77 19 75.2 19 73C19 70.8 20.8 69 23 69C23.1 69 23.1 69 23.2 69C23.6 67.8 24.7 67 26 67C26.3 67 26.7 67.1 27 67.2C27.2 64.9 29.1 63 31.5 63C33.3 63 35 64.1 35.7 65.8C36.4 65.3 37.2 65 38 65C40.2 65 42 66.8 42 69V69.1C43.7 69.5 45 71.1 45 73C45 75.2 43.2 77 41 77Z" fill="#472B29"/>
<path d="M35.5 76C35.3 76 34.7 76 34.5 76C34.2 76 34 76.2 34 76.5C34 76.8 34.2 77 34.5 77C34.7 77 35.3 77 35.5 77C35.8 77 36 76.8 36 76.5C36 76.2 35.8 76 35.5 76Z" fill="#472B29"/>
</svg>
