<svg width="806" height="792" viewBox="0 0 806 792" fill="none" xmlns="http://www.w3.org/2000/svg">
<path d="M725.239 631.208H671.85V631.604H725.239V631.208Z" fill="#EBEBEB"/>
<path d="M533.927 635.517H519.918V635.913H533.927V635.517Z" fill="#EBEBEB"/>
<path d="M670.238 616.509H639.303V616.905H670.238V616.509Z" fill="#EBEBEB"/>
<path d="M154.188 619.17H84.5654V619.566H154.188V619.17Z" fill="#EBEBEB"/>
<path d="M178.755 619.17H168.551V619.566H178.755V619.17Z" fill="#EBEBEB"/>
<path d="M362.942 625.854H211.93V626.25H362.942V625.854Z" fill="#EBEBEB"/>
<path d="M384.301 535.075H73.0234C70.5822 535.075 68.241 534.122 66.5148 532.426C64.7886 530.73 63.8188 528.429 63.8188 526.031V96.0854C63.8401 93.7004 64.8192 91.4202 66.5431 89.741C68.267 88.0619 70.5961 87.1199 73.0234 87.12H384.301C385.509 87.12 386.706 87.3539 387.823 87.8085C388.94 88.263 389.954 88.9292 390.809 89.7691C391.664 90.609 392.342 91.6061 392.804 92.7034C393.267 93.8008 393.505 94.9769 393.505 96.1646V526.031C393.505 527.218 393.267 528.394 392.804 529.492C392.342 530.589 391.664 531.586 390.809 532.426C389.954 533.266 388.94 533.932 387.823 534.387C386.706 534.841 385.509 535.075 384.301 535.075ZM73.0234 87.4368C70.6904 87.441 68.4541 88.3535 66.8045 89.9745C65.1548 91.5956 64.2261 93.793 64.2218 96.0854V526.031C64.2261 528.323 65.1548 530.52 66.8045 532.141C68.4541 533.762 70.6904 534.675 73.0234 534.679H384.301C386.634 534.675 388.87 533.762 390.52 532.141C392.169 530.52 393.098 528.323 393.102 526.031V96.0854C393.098 93.793 392.169 91.5956 390.52 89.9745C388.87 88.3535 386.634 87.441 384.301 87.4368H73.0234Z" fill="#EBEBEB"/>
<path d="M732.976 535.075H421.699C419.258 535.075 416.917 534.122 415.191 532.426C413.464 530.73 412.495 528.429 412.495 526.031V96.0854C412.516 93.7004 413.495 91.4202 415.219 89.741C416.943 88.0619 419.272 87.1199 421.699 87.12H732.976C735.418 87.12 737.759 88.0729 739.485 89.7691C741.211 91.4653 742.181 93.7658 742.181 96.1646V526.031C742.181 528.429 741.211 530.73 739.485 532.426C737.759 534.122 735.418 535.075 732.976 535.075ZM421.699 87.4368C419.366 87.441 417.13 88.3535 415.48 89.9745C413.831 91.5956 412.902 93.793 412.898 96.0854V526.031C412.902 528.323 413.831 530.52 415.48 532.141C417.13 533.762 419.366 534.675 421.699 534.679H732.976C735.309 534.675 737.546 533.762 739.195 532.141C740.845 530.52 741.774 528.323 741.778 526.031V96.0854C741.774 93.793 740.845 91.5956 739.195 89.9745C737.546 88.3535 735.309 87.441 732.976 87.4368H421.699Z" fill="#EBEBEB"/>
<path d="M806 605.722H0V606.118H806V605.722Z" fill="#EBEBEB"/>
<path d="M564.313 596.519H717.743V395.905H564.313V596.519Z" fill="#F5F5F5"/>
<path d="M535.039 596.519H564.313V395.905H535.039V596.519Z" fill="#E6E6E6"/>
<path d="M574.275 459.518H706.991V410.795H574.275V459.518Z" fill="#FAFAFA"/>
<path d="M657.938 410.795L657.357 417.289C657.268 418.324 656.786 419.288 656.006 419.99C655.227 420.691 654.207 421.078 653.15 421.075H628.116C627.059 421.078 626.039 420.691 625.259 419.99C624.48 419.288 623.998 418.324 623.908 417.289L623.328 410.795H657.938Z" fill="#EBEBEB"/>
<path d="M574.275 513.549H706.991V464.825H574.275V513.549Z" fill="#FAFAFA"/>
<path d="M657.938 464.841L657.357 471.335C657.265 472.369 656.781 473.331 656.003 474.031C655.224 474.732 654.206 475.121 653.15 475.121H628.116C627.06 475.121 626.042 474.732 625.263 474.031C624.485 473.331 624.001 472.369 623.908 471.335L623.328 464.841H657.938Z" fill="#EBEBEB"/>
<path d="M574.275 567.595H706.991V518.871H574.275V567.595Z" fill="#FAFAFA"/>
<path d="M657.938 518.871L657.357 525.365C657.268 526.4 656.786 527.364 656.006 528.066C655.227 528.767 654.207 529.155 653.15 529.151H628.116C627.059 529.155 626.039 528.767 625.259 528.066C624.48 527.364 623.998 526.4 623.908 525.365L623.328 518.871H657.938Z" fill="#EBEBEB"/>
<path d="M574.275 606.545H705.379L706.991 596.503H574.275V606.545Z" fill="#E6E6E6"/>
<path d="M546.871 606.545H574.275V596.503H545.259L546.871 606.545Z" fill="#E0E0E0"/>
<path d="M635.902 396.127H688.292L682.489 330.85H630.099L635.902 396.127Z" fill="#FAFAFA"/>
<path d="M635.902 396.127H633.403L627.584 330.85H630.099L635.902 396.127Z" fill="#EBEBEB"/>
<path d="M640.657 389.474H682.36L677.733 337.503H636.031L640.657 389.474Z" fill="#F0F0F0"/>
<path d="M643.704 385.197H678.539L674.686 341.78H639.835L643.704 385.197Z" fill="#E6E6E6"/>
<path d="M621.184 396.127L624.779 355.719H572.631L569.036 396.127H621.184Z" fill="#F0F0F0"/>
<path d="M621.184 396.127L624.779 355.719H627.584L623.989 396.127H621.184Z" fill="#E0E0E0"/>
<path d="M616.236 392.008L619.105 359.837H577.58L574.71 392.008H616.236Z" fill="#EBEBEB"/>
<path d="M613.06 389.363L615.446 362.498H580.755L578.37 389.363H613.06Z" fill="#F5F5F5"/>
<path d="M500.752 579.38C500.752 590.087 499.043 597.01 496.174 601.461C495.07 603.091 493.568 604.423 491.805 605.336C490.042 606.249 488.075 606.714 486.083 606.688H470.301C468.309 606.714 466.341 606.249 464.578 605.336C462.816 604.423 461.314 603.091 460.21 601.461C457.341 597.01 455.616 590.087 455.616 579.38C455.616 563.841 462.515 551.406 464.772 541.49C465.578 537.91 462.87 526.949 462.87 526.949H493.498C493.498 526.949 490.806 537.91 491.612 541.49C493.868 551.406 500.752 563.904 500.752 579.38Z" fill="#EBEBEB"/>
<path d="M552.916 516.527C552.916 503.031 531.396 508.607 525.98 487.714C523.916 479.794 541.423 461.847 541.423 461.847H486.824C486.824 461.847 504.33 479.794 502.267 487.714C496.851 508.638 475.331 503.031 475.331 516.527C475.331 531.369 505.685 562.304 507.151 597.121C507.28 600.289 501.445 606.625 501.445 606.625H526.786C526.786 606.625 520.934 600.162 521.079 597.121C522.562 562.32 552.916 531.369 552.916 516.527Z" fill="#F5F5F5"/>
<path d="M536.425 551.565C539.649 545.007 533.04 522.736 533.04 522.736H556.688C556.688 522.736 550.127 545.007 553.303 551.565C555.544 556.19 560.622 559.152 560.622 564.617V597.516C560.622 606.038 553.529 606.688 544.856 606.688C536.184 606.688 529.091 606.038 529.091 597.516V564.617C529.091 559.152 534.185 556.19 536.425 551.565Z" fill="#F0F0F0"/>
<path d="M266.222 357.24C252.649 351.458 244.895 339.261 248.958 330.042C253.02 320.823 267.367 318.036 280.956 323.817C294.545 329.599 302.282 341.796 298.22 351.014C294.158 360.233 279.811 363.021 266.222 357.24ZM277.039 332.64C270.591 329.931 263.949 331.23 262.047 335.555C260.145 339.879 263.772 345.581 270.107 348.227C276.442 350.872 283.196 349.636 285.099 345.312C287.001 340.988 283.406 335.412 277.039 332.64Z" fill="#E6E6E6"/>
<path d="M282.213 333.21L275.765 330.47L314.775 241.861C314.957 241.443 315.222 241.065 315.554 240.749C315.886 240.433 316.278 240.184 316.708 240.018C317.139 239.851 317.598 239.77 318.06 239.779C318.523 239.789 318.978 239.888 319.401 240.071C319.824 240.25 320.207 240.51 320.528 240.835C320.848 241.16 321.101 241.543 321.27 241.964C321.439 242.385 321.522 242.835 321.514 243.287C321.506 243.74 321.407 244.186 321.223 244.601L282.213 333.21Z" fill="#E6E6E6"/>
<path d="M324.205 253.171L311.809 247.848L314.614 241.512L326.994 246.835L324.205 253.171Z" fill="#E6E6E6"/>
<path d="M318.096 260.267L309.23 256.481L312.019 250.129L320.885 253.915L318.096 260.267Z" fill="#E6E6E6"/>
<path d="M308.406 262.234L305.613 268.572L315.554 272.801L318.347 266.463L308.406 262.234Z" fill="#E6E6E6"/>
<path d="M284.711 323.754L281.165 322.249C280.318 321.884 279.652 321.204 279.314 320.358C278.975 319.512 278.992 318.569 279.36 317.735C279.728 316.899 280.419 316.242 281.28 315.906C282.141 315.57 283.103 315.584 283.954 315.945L287.5 317.449C288.347 317.814 289.013 318.494 289.351 319.34C289.69 320.186 289.673 321.13 289.306 321.964C288.937 322.799 288.246 323.457 287.385 323.792C286.524 324.128 285.562 324.114 284.711 323.754Z" fill="#E6E6E6"/>
<path d="M561.734 293.293C565.777 295.802 568.968 299.439 570.898 303.738C572.829 308.037 573.41 312.805 572.57 317.431C571.729 322.057 569.504 326.331 566.179 329.709C562.854 333.086 558.58 335.413 553.903 336.392C549.225 337.37 544.357 336.957 539.92 335.204C535.483 333.45 531.679 330.437 528.993 326.549C526.308 322.661 524.862 318.075 524.842 313.375C524.823 308.676 526.229 304.078 528.881 300.168C532.315 294.981 537.702 291.344 543.861 290.055C550.02 288.766 556.448 289.931 561.734 293.293ZM542.148 322.17C543.983 323.439 546.162 324.142 548.406 324.188C550.65 324.234 552.858 323.622 554.745 322.429C556.633 321.236 558.116 319.517 559.005 317.492C559.894 315.467 560.147 313.227 559.734 311.059C559.32 308.891 558.258 306.894 556.683 305.323C555.108 303.751 553.092 302.677 550.893 302.237C548.693 301.797 546.41 302.012 544.336 302.854C542.261 303.696 540.489 305.127 539.246 306.963C537.58 309.358 536.95 312.305 537.494 315.157C538.039 318.008 539.712 320.53 542.148 322.17Z" fill="#E6E6E6"/>
<path d="M539.553 319.35L546.226 323.722L498.479 395.509C497.888 396.378 496.971 396.981 495.928 397.186C494.886 397.391 493.803 397.181 492.918 396.602C492.48 396.316 492.105 395.948 491.812 395.52C491.519 395.091 491.316 394.61 491.212 394.104C491.109 393.598 491.108 393.077 491.21 392.57C491.312 392.064 491.514 391.582 491.805 391.153L539.553 319.35Z" fill="#E6E6E6"/>
<path d="M492.111 375.487L506.168 384.754L499.156 395.097L485.083 385.815C484.115 385.174 483.445 384.183 483.218 383.058C482.992 381.933 483.227 380.766 483.874 379.812L485.986 376.644C486.646 375.697 487.659 375.044 488.806 374.828C489.953 374.611 491.141 374.848 492.111 375.487Z" fill="#E6E6E6"/>
<path d="M366.795 156.119L359.379 174.969C359.221 175.373 358.982 175.743 358.678 176.057C358.374 176.371 358.01 176.623 357.606 176.799C357.203 176.975 356.768 177.071 356.327 177.082C355.886 177.092 355.447 177.018 355.035 176.862C354.623 176.705 354.247 176.471 353.927 176.172C353.608 175.873 353.351 175.515 353.172 175.119C352.993 174.723 352.896 174.296 352.885 173.862C352.874 173.429 352.95 172.997 353.109 172.593L360.524 153.743C361.671 150.812 361.588 147.555 360.295 144.684C359.002 141.813 356.603 139.562 353.625 138.426L346.757 135.812C343.779 134.684 340.467 134.76 337.546 136.025C334.625 137.289 332.332 139.639 331.169 142.56L328.139 150.258L321.884 147.882L324.915 140.184C325.802 137.925 327.133 135.86 328.832 134.106C330.531 132.353 332.565 130.945 334.818 129.964C337.071 128.983 339.498 128.447 341.962 128.388C344.425 128.329 346.876 128.747 349.175 129.619L356.043 132.216C358.347 133.091 360.453 134.403 362.24 136.078C364.028 137.753 365.462 139.758 366.46 141.978C367.459 144.198 368.002 146.589 368.06 149.016C368.117 151.442 367.687 153.856 366.795 156.119Z" fill="#F0F0F0"/>
<path d="M365.618 159.081C365.106 158.435 364.427 157.937 363.651 157.64L326.253 143.384C325.117 142.963 323.859 142.999 322.749 143.482C321.639 143.965 320.767 144.857 320.321 145.966L305.813 182.73C305.377 183.844 305.409 185.081 305.901 186.171C306.394 187.262 307.307 188.115 308.44 188.544L345.839 202.8C346.4 203.014 347 203.117 347.603 203.104C348.205 203.09 348.799 202.959 349.35 202.719C349.902 202.48 350.399 202.135 350.815 201.706C351.23 201.276 351.555 200.771 351.771 200.218L366.279 163.469C366.565 162.744 366.655 161.958 366.539 161.189C366.423 160.42 366.106 159.693 365.618 159.081ZM337.214 187.482L325.366 182.984L331.637 172.228C331.151 171.265 330.917 170.198 330.956 169.124C330.996 168.05 331.307 167.002 331.862 166.076C332.418 165.15 333.199 164.375 334.136 163.82C335.074 163.266 336.137 162.95 337.229 162.901C338.322 162.852 339.41 163.071 340.395 163.54C341.379 164.008 342.23 164.711 342.868 165.583C343.507 166.456 343.914 167.471 344.053 168.538C344.191 169.604 344.057 170.687 343.662 171.69C343.339 172.527 342.838 173.288 342.194 173.921C341.549 174.555 340.775 175.047 339.923 175.365L337.214 187.482Z" fill="#E6E6E6"/>
<path d="M111.47 585.225H409.899V427.411H111.47V585.225Z" fill="#E6E6E6"/>
<path d="M385.977 605.706H404.741V591.782H385.977V605.706Z" fill="#E6E6E6"/>
<path d="M88.6924 605.706H107.456L107.456 415.673H88.6924L88.6924 605.706Z" fill="#E6E6E6"/>
<path d="M107.23 415.657V605.737H117.241V595.093H404.741V605.737H414.752V415.657H107.23ZM117.241 432.86H255.986V498.865H117.241V432.86ZM404.741 577.843H265.98V432.86H404.725L404.741 577.843ZM117.241 577.843V508.702H255.986V577.843H117.241Z" fill="#F0F0F0"/>
<path d="M265.98 577.859H395.359V439.972H265.98V577.859Z" fill="#F5F5F5"/>
<path d="M271.848 504.773C271.848 505.942 272.2 507.084 272.861 508.056C273.522 509.027 274.461 509.785 275.559 510.232C276.658 510.679 277.867 510.796 279.033 510.568C280.2 510.34 281.271 509.777 282.112 508.951C282.953 508.125 283.526 507.072 283.758 505.926C283.99 504.78 283.871 503.592 283.415 502.512C282.96 501.433 282.19 500.51 281.201 499.861C280.212 499.211 279.05 498.865 277.86 498.865C277.071 498.865 276.289 499.018 275.559 499.315C274.83 499.612 274.167 500.047 273.609 500.596C273.05 501.144 272.608 501.795 272.305 502.512C272.003 503.229 271.848 503.997 271.848 504.773Z" fill="#FAFAFA"/>
<path d="M277.86 510.682C279.009 510.678 280.133 510.35 281.099 509.738C282.065 509.126 282.832 508.255 283.309 507.228C283.677 507.996 283.87 508.835 283.873 509.684C283.873 511.251 283.24 512.753 282.112 513.861C280.984 514.969 279.455 515.592 277.86 515.592C276.266 515.592 274.736 514.969 273.609 513.861C272.481 512.753 271.848 511.251 271.848 509.684C271.851 508.835 272.044 507.996 272.412 507.228C272.889 508.255 273.656 509.126 274.622 509.738C275.588 510.35 276.711 510.678 277.86 510.682Z" fill="#E0E0E0"/>
<path d="M345.194 577.843H314.324L299.574 439.956H330.444L345.194 577.843Z" fill="#FAFAFA"/>
<path d="M306.425 577.843H300.283L285.534 439.956H291.675L306.425 577.843Z" fill="#FAFAFA"/>
<path d="M224.729 498.802H236.948V439.829H224.729V498.802Z" fill="#FAFAFA"/>
<path d="M174.032 498.802H186.25V439.829H174.032V498.802Z" fill="#F5F5F5"/>
<path d="M212.494 498.802H224.713V443.964H212.494V498.802Z" fill="#F5F5F5"/>
<path d="M186.25 498.802H198.469V443.964H186.25V498.802Z" fill="#FAFAFA"/>
<path d="M198.485 498.802H206.384V439.829H198.485V498.802Z" fill="#EBEBEB"/>
<path d="M206.368 498.802H212.478V443.964H206.368V498.802Z" fill="#FAFAFA"/>
<path d="M161.813 498.802H174.032V439.829H161.813V498.802Z" fill="#EBEBEB"/>
<path d="M149.577 498.802H161.796V443.964H149.577V498.802Z" fill="#E6E6E6"/>
<path d="M123.334 498.802H135.553V443.964H123.334V498.802Z" fill="#E6E6E6"/>
<path d="M135.569 498.802H143.468V439.829H135.569V498.802Z" fill="#FAFAFA"/>
<path d="M143.468 498.802H149.578V443.964H143.468V498.802Z" fill="#EBEBEB"/>
<path d="M117.225 498.802H123.334L123.334 441.223H117.225V498.802Z" fill="#EBEBEB"/>
<path d="M129.444 518.871H117.225V577.843H129.444V518.871Z" fill="#EBEBEB"/>
<path d="M180.125 518.871H167.906V577.843H180.125V518.871Z" fill="#FAFAFA"/>
<path d="M141.662 523.021H129.443V577.859H141.662V523.021Z" fill="#FAFAFA"/>
<path d="M167.906 523.021H155.687V577.859H167.906V523.021Z" fill="#EBEBEB"/>
<path d="M155.687 518.871H147.788V577.843H155.687V518.871Z" fill="#FAFAFA"/>
<path d="M147.788 523.021H141.679V577.859H147.788V523.021Z" fill="#F5F5F5"/>
<path d="M192.36 518.871H180.141V577.843H192.36V518.871Z" fill="#EBEBEB"/>
<path d="M204.579 523.021H192.36V577.859H204.579V523.021Z" fill="#F5F5F5"/>
<path d="M230.822 523.021H218.604V577.859H230.822V523.021Z" fill="#E6E6E6"/>
<path d="M218.603 518.871H210.705V577.843H218.603V518.871Z" fill="#FAFAFA"/>
<path d="M244.847 518.871H236.948V577.843H244.847V518.871Z" fill="#FAFAFA"/>
<path d="M210.705 523.021H204.595V577.859H210.705V523.021Z" fill="#EBEBEB"/>
<path d="M236.932 520.265H230.822V577.843H236.932V520.265Z" fill="#EBEBEB"/>
<path d="M130.862 314.091C129.596 314.704 128.549 315.682 127.864 316.895C126.929 318.764 129.847 322.233 129.847 322.233C130.55 322.695 131.354 322.989 132.194 323.091C133.034 323.192 133.886 323.099 134.683 322.819L137.101 321.742C137.101 321.742 132.958 314.662 130.943 314.582L130.862 314.091Z" fill="#E6E6E6"/>
<path d="M141.26 314.028C141.55 317.386 139.438 321.631 136.424 321.948C133.409 322.265 130.572 318.384 130.218 314.978C129.863 311.573 132.378 311.288 135.424 311.034C138.471 310.781 140.953 310.67 141.26 314.028Z" fill="#E6E6E6"/>
<path d="M132.313 313.046C132.313 313.046 134.65 314.867 139.454 313.806C139.454 313.806 131.878 318.764 132.313 313.046Z" fill="#E6E6E6"/>
<path d="M134.376 312.381C134.376 312.381 137.069 311.921 137.101 313.014C137.101 313.014 139.39 312.888 139.067 311.953C138.745 311.018 134.376 312.381 134.376 312.381Z" fill="#E6E6E6"/>
<g opacity="0.2">
<path d="M132.313 313.046C132.313 313.046 134.65 314.867 139.454 313.806C139.454 313.806 131.878 318.764 132.313 313.046Z" fill="#FAFAFA"/>
</g>
<g opacity="0.2">
<path d="M134.376 312.381C134.376 312.381 137.069 311.921 137.101 313.014C137.101 313.014 139.39 312.888 139.067 311.953C138.745 311.018 134.376 312.381 134.376 312.381Z" fill="#FAFAFA"/>
</g>
<path d="M131.265 322.946C131.785 323.712 132.515 324.318 133.371 324.694C134.227 325.069 135.173 325.199 136.101 325.068C137.018 324.933 137.896 324.611 138.679 324.122C139.462 323.634 140.132 322.991 140.647 322.233C141.652 320.706 142.21 318.935 142.259 317.117C142.259 316.657 142.259 315.533 141.695 315.295C141.131 315.058 140.76 315.929 140.502 316.293C139.749 317.356 138.891 318.343 137.939 319.239C136.997 320.127 135.953 320.903 134.828 321.552C134.505 321.647 131.442 323.215 131.265 322.946Z" fill="#E6E6E6"/>
<path d="M144.355 316.246C144.633 316.933 144.73 317.678 144.637 318.412C144.544 319.145 144.264 319.844 143.823 320.443C143.187 321.184 142.416 321.802 141.55 322.265C140.953 322.613 140.196 322.946 139.615 322.582C139.035 322.217 139.051 321.283 139.196 320.57C139.422 319.477 139.664 318.384 139.954 317.291C140.091 316.197 140.396 315.129 140.857 314.123C141.356 313.426 142.049 313.838 142.807 314.361C143.495 314.832 144.031 315.486 144.355 316.246Z" fill="#E6E6E6"/>
<g opacity="0.2">
<path d="M132.039 321.093C131.453 321.046 130.89 320.843 130.413 320.505C129.936 320.168 129.561 319.708 129.331 319.176C129.008 318.368 129.008 316.356 130.072 316.087C130.393 317.865 131.061 319.564 132.039 321.093Z" fill="#FAFAFA"/>
</g>
<g opacity="0.2">
<path d="M139.986 320.998C140.543 320.838 141.052 320.547 141.468 320.149C141.884 319.752 142.194 319.26 142.372 318.717C142.549 318.115 142.372 315.042 141.388 316.325C141.082 316.752 141.146 318.099 140.985 318.653C140.747 319.471 140.412 320.257 139.986 320.998Z" fill="#FAFAFA"/>
</g>
<g opacity="0.2">
<path d="M135.73 322.898C136.18 323.267 136.743 323.475 137.328 323.49C137.914 323.504 138.487 323.324 138.954 322.978C138.825 323.58 136.923 324.071 136.343 324.245C134.731 324.688 133.989 324.023 132.506 323.405C132.426 323.405 134.779 323.754 135.73 322.898Z" fill="#FAFAFA"/>
</g>
<path d="M133.071 384.595L133.216 338.897L135.602 325.005L136.504 325.148L134.135 338.976L133.957 385.466L133.071 384.595Z" fill="#E0E0E0"/>
<path d="M134.038 338.659L133.312 339.214C132.493 338.087 131.77 336.895 131.152 335.65C129.943 333.189 128.421 330.89 126.623 328.807L127.3 328.189C129.152 330.331 130.723 332.694 131.974 335.222C132.565 336.421 133.255 337.571 134.038 338.659Z" fill="#E0E0E0"/>
<path d="M134.602 332.529C135.849 332.197 136.935 331.439 137.665 330.391C138.388 329.147 138.848 327.774 139.019 326.352C137.407 326.827 135.682 326.066 134.022 326.256C133.359 326.337 132.723 326.566 132.164 326.926C131.605 327.285 131.138 327.766 130.798 328.332C129.927 329.805 129.573 331.5 130.346 332.149C131.661 332.814 133.187 332.95 134.602 332.529Z" fill="#E6E6E6"/>
<path d="M128.412 329.377C127.664 329.834 126.824 330.126 125.95 330.233C125.076 330.34 124.189 330.258 123.35 329.995C121.738 329.472 121.206 327.001 120.545 325.401C122.62 325.211 124.709 325.211 126.784 325.401C127.222 325.427 127.649 325.549 128.034 325.757C128.419 325.965 128.751 326.255 129.008 326.605C129.25 326.964 129.349 327.398 129.287 327.825C129.224 328.251 129.005 328.64 128.67 328.918L128.412 329.377Z" fill="#E6E6E6"/>
<path d="M120.787 332.054C121.453 331.403 122.255 330.903 123.137 330.588C124.02 330.273 124.962 330.152 125.897 330.232C126.646 330.368 127.352 330.675 127.957 331.129C128.562 331.584 129.049 332.172 129.379 332.846C129.128 333.316 128.753 333.71 128.294 333.989C127.835 334.268 127.308 334.42 126.768 334.43C125.669 334.446 124.576 334.264 123.544 333.891C122.514 333.509 121.42 333.321 120.32 333.337L120.787 332.054Z" fill="#E6E6E6"/>
<path d="M151.818 324.197C152.839 325.146 153.542 326.378 153.833 327.73C154.171 329.805 150.351 332.26 150.351 332.26C149.535 332.507 148.671 332.559 147.83 332.413C146.989 332.267 146.196 331.927 145.515 331.42L143.468 329.678C143.468 329.678 149.561 324.118 151.528 324.641L151.818 324.197Z" fill="#E6E6E6"/>
<path d="M141.856 321.14C140.583 324.308 141.34 328.918 144.177 330.042C147.015 331.167 150.851 328.347 152.141 325.29C153.43 322.233 151.206 321.077 148.304 319.968C145.403 318.859 143.178 318.02 141.856 321.14Z" fill="#E6E6E6"/>
<path d="M150.738 322.772C150.738 322.772 147.95 323.849 143.678 321.441C143.678 321.441 149.433 328.363 150.738 322.772Z" fill="#E6E6E6"/>
<path d="M148.965 321.552C148.965 321.552 146.531 320.332 146.16 321.378C146.16 321.378 144.016 320.602 144.548 319.794C145.08 318.986 148.965 321.552 148.965 321.552Z" fill="#E6E6E6"/>
<g opacity="0.2">
<path d="M150.738 322.772C150.738 322.772 147.95 323.849 143.678 321.441C143.678 321.441 149.433 328.363 150.738 322.772Z" fill="#FAFAFA"/>
</g>
<g opacity="0.2">
<path d="M148.965 321.552C148.965 321.552 146.531 320.332 146.16 321.378C146.16 321.378 144.016 320.602 144.548 319.794C145.08 318.986 148.965 321.552 148.965 321.552Z" fill="#FAFAFA"/>
</g>
<path d="M148.772 332.545C148.049 333.114 147.18 333.475 146.261 333.59C145.342 333.705 144.409 333.568 143.565 333.194C142.73 332.799 141.988 332.236 141.386 331.544C140.783 330.851 140.334 330.043 140.067 329.171C139.567 327.409 139.567 325.547 140.067 323.785C140.163 323.326 140.486 322.201 141.147 322.201C141.808 322.201 141.84 323.073 141.985 323.5C142.388 324.743 142.929 325.938 143.597 327.064C144.243 328.163 145.016 329.183 145.902 330.106C146.063 330.375 148.53 332.751 148.772 332.545Z" fill="#E6E6E6"/>
<path d="M138.277 322.36C137.8 322.93 137.48 323.612 137.35 324.339C137.22 325.066 137.284 325.814 137.536 326.51C137.902 327.411 138.451 328.23 139.148 328.918C139.599 329.424 140.228 329.963 140.889 329.773C141.55 329.583 141.807 328.696 141.888 327.983C142.001 326.858 142.098 325.75 142.146 324.625C142.315 323.549 142.315 322.454 142.146 321.378C141.888 320.554 141.082 320.744 140.212 321.029C139.452 321.284 138.781 321.745 138.277 322.36Z" fill="#E6E6E6"/>
<g opacity="0.2">
<path d="M148.594 330.533C149.177 330.685 149.792 330.666 150.364 330.481C150.936 330.295 151.442 329.95 151.818 329.488C152.35 328.823 152.947 326.89 152.028 326.32C151.167 327.926 150.001 329.356 148.594 330.533Z" fill="#FAFAFA"/>
</g>
<g opacity="0.2">
<path d="M141.018 328.157C140.528 327.849 140.123 327.425 139.842 326.925C139.56 326.424 139.41 325.862 139.406 325.29C139.406 324.657 140.55 321.79 141.018 323.294C141.179 323.785 140.711 325.053 140.711 325.623C140.716 326.476 140.818 327.327 141.018 328.157Z" fill="#FAFAFA"/>
</g>
<g opacity="0.2">
<path d="M144.516 331.199C143.991 331.408 143.411 331.44 142.866 331.291C142.321 331.142 141.841 330.82 141.501 330.375C141.501 330.977 143.113 331.959 143.613 332.339C144.951 333.21 145.918 332.798 147.53 332.64C147.53 332.64 145.177 332.307 144.516 331.199Z" fill="#FAFAFA"/>
</g>
<path d="M131.749 377.768L132.329 375.899L133.103 373.38L134.005 370.434L141.243 347.039L142.146 340.322L142.952 334.367L143.113 333.131L143.564 333.179V333.194L144.032 333.242L144.016 333.353L143.855 334.525L143 340.893L142.307 346.088L142.146 347.229L142.081 347.403L134.005 373.539L133.086 376.469L132.683 377.831L132.103 379.685L131.749 377.768Z" fill="#E0E0E0"/>
<path d="M141.421 346.769L141.953 347.498C143.07 346.653 144.116 345.721 145.08 344.71C146.991 342.701 149.158 340.944 151.528 339.483L151.061 338.707C148.645 340.208 146.439 342.013 144.5 344.076C143.541 345.046 142.512 345.946 141.421 346.769Z" fill="#E0E0E0"/>
<path d="M142.727 340.75C141.628 340.077 140.815 339.036 140.438 337.82C140.112 336.42 140.085 334.969 140.357 333.559C141.743 334.477 143.581 334.24 145.193 334.905C145.803 335.174 146.342 335.576 146.77 336.082C147.197 336.587 147.502 337.181 147.659 337.82C148.046 339.404 147.885 341.178 146.95 341.605C145.482 341.879 143.964 341.572 142.727 340.75Z" fill="#E6E6E6"/>
<path d="M149.577 339.515C150.153 340.168 150.866 340.691 151.668 341.047C152.47 341.402 153.34 341.582 154.22 341.574C155.977 341.574 157.186 339.325 158.282 337.978C156.362 337.193 154.37 336.588 152.334 336.172C151.908 336.07 151.464 336.063 151.035 336.15C150.605 336.238 150.201 336.419 149.852 336.679C149.509 336.951 149.28 337.336 149.209 337.763C149.137 338.19 149.228 338.627 149.465 338.992L149.577 339.515Z" fill="#E6E6E6"/>
<path d="M156.074 344.267C155.632 343.455 155.012 342.75 154.26 342.202C153.507 341.655 152.64 341.278 151.721 341.099C150.965 341.011 150.199 341.101 149.485 341.359C148.77 341.618 148.128 342.039 147.611 342.588C147.707 343.113 147.944 343.603 148.299 344.007C148.653 344.411 149.111 344.714 149.626 344.884C150.667 345.208 151.76 345.342 152.85 345.28C153.94 345.21 155.034 345.345 156.074 345.676V344.267Z" fill="#E6E6E6"/>
<path d="M119.159 322.36C118.033 323.193 117.19 324.342 116.741 325.655C116.161 327.666 119.659 330.549 119.659 330.549C120.43 330.88 121.27 331.028 122.11 330.981C122.95 330.934 123.767 330.694 124.495 330.28L126.687 328.775C126.687 328.775 121.319 322.55 119.32 322.835L119.159 322.36Z" fill="#E6E6E6"/>
<path d="M129.379 320.475C130.282 323.722 128.976 328.268 126.026 329.06C123.076 329.852 119.578 326.605 118.692 323.358C117.805 320.111 120.143 319.35 123.093 318.606C126.042 317.861 128.477 317.228 129.379 320.475Z" fill="#E6E6E6"/>
<path d="M120.4 321.077C120.4 321.077 123.028 322.471 127.558 320.57C127.558 320.57 121.029 326.795 120.4 321.077Z" fill="#E6E6E6"/>
<path d="M122.302 320.063C122.302 320.063 124.865 319.128 125.107 320.206C125.107 320.206 127.332 319.683 126.848 318.812C126.364 317.94 122.302 320.063 122.302 320.063Z" fill="#E6E6E6"/>
<g opacity="0.2">
<path d="M120.4 321.077C120.4 321.077 123.028 322.471 127.558 320.57C127.558 320.57 121.029 326.795 120.4 321.077Z" fill="#FAFAFA"/>
</g>
<g opacity="0.2">
<path d="M122.302 320.063C122.302 320.063 124.865 319.128 125.107 320.206C125.107 320.206 127.332 319.683 126.848 318.812C126.364 317.94 122.302 320.063 122.302 320.063Z" fill="#FAFAFA"/>
</g>
<path d="M121.174 331.056C121.823 331.705 122.643 332.166 123.541 332.387C124.44 332.608 125.384 332.58 126.268 332.307C127.146 332.01 127.951 331.537 128.634 330.918C129.316 330.299 129.861 329.548 130.233 328.712C130.967 327.031 131.212 325.183 130.943 323.374C130.943 322.914 130.717 321.79 130.056 321.679C129.395 321.568 129.25 322.471 129.057 322.883C128.516 324.061 127.851 325.181 127.074 326.225C126.302 327.244 125.409 328.17 124.414 328.981C124.124 329.155 121.4 331.246 121.174 331.056Z" fill="#E6E6E6"/>
<path d="M132.829 322.106C133.231 322.731 133.464 323.445 133.506 324.182C133.548 324.92 133.399 325.655 133.071 326.32C132.592 327.17 131.945 327.919 131.169 328.522C130.653 328.965 129.96 329.424 129.331 329.171C128.702 328.918 128.541 327.999 128.557 327.27C128.557 326.146 128.557 325.037 128.686 323.912C128.635 322.846 128.744 321.779 129.009 320.744C129.363 319.952 130.137 320.237 130.975 320.617C131.721 320.936 132.363 321.451 132.829 322.106Z" fill="#E6E6E6"/>
<g opacity="0.2">
<path d="M121.609 329.044C121.02 329.118 120.421 329.025 119.884 328.775C119.347 328.525 118.894 328.129 118.579 327.635C118.128 326.906 117.757 324.91 118.74 324.467C119.395 326.156 120.368 327.709 121.609 329.044Z" fill="#FAFAFA"/>
</g>
<g opacity="0.2">
<path d="M129.411 327.555C129.93 327.298 130.376 326.919 130.71 326.452C131.045 325.985 131.257 325.445 131.329 324.878C131.329 324.261 130.604 321.283 129.927 322.708C129.847 323.488 129.847 324.273 129.927 325.053C129.853 325.903 129.68 326.743 129.411 327.555Z" fill="#FAFAFA"/>
</g>
<g opacity="0.2">
<path d="M125.575 330.169C126.072 330.435 126.645 330.532 127.204 330.446C127.763 330.36 128.278 330.096 128.67 329.694C128.67 330.296 126.88 331.119 126.332 331.405C124.898 332.101 123.979 331.595 122.399 331.262C122.399 331.262 124.785 331.183 125.575 330.169Z" fill="#FAFAFA"/>
</g>
<path d="M134.231 391.343L126.01 346.357L125.816 332.26L126.735 332.244L126.929 346.278L135.263 392.04L134.231 391.343Z" fill="#E0E0E0"/>
<path d="M126.784 345.977L126.155 346.643C125.148 345.664 124.225 344.604 123.398 343.475C121.753 341.28 119.83 339.3 117.676 337.582L118.24 336.869C120.456 338.649 122.433 340.699 124.124 342.968C124.925 344.04 125.815 345.047 126.784 345.977Z" fill="#E0E0E0"/>
<path d="M126.204 339.847C127.376 339.307 128.31 338.367 128.831 337.202C129.323 335.853 129.526 334.418 129.428 332.988C127.929 333.749 126.091 333.289 124.495 333.765C123.856 333.967 123.272 334.308 122.786 334.763C122.3 335.219 121.925 335.776 121.69 336.394C121.11 337.978 121.061 339.689 121.948 340.212C123.36 340.648 124.89 340.517 126.204 339.847Z" fill="#E6E6E6"/>
<path d="M119.546 337.836C118.9 338.417 118.133 338.854 117.297 339.114C116.462 339.374 115.579 339.451 114.71 339.34C112.969 339.119 112.034 336.774 111.115 335.317C113.115 334.749 115.167 334.377 117.241 334.208C117.675 334.155 118.115 334.196 118.531 334.331C118.946 334.465 119.326 334.688 119.643 334.984C119.947 335.297 120.124 335.707 120.142 336.139C120.16 336.57 120.017 336.993 119.739 337.329L119.546 337.836Z" fill="#E6E6E6"/>
<path d="M112.534 341.811C113.071 341.057 113.769 340.427 114.579 339.965C115.389 339.502 116.292 339.219 117.225 339.134C117.988 339.132 118.74 339.308 119.421 339.647C120.102 339.985 120.692 340.477 121.142 341.083C120.987 341.596 120.691 342.058 120.288 342.419C119.884 342.779 119.388 343.024 118.853 343.126C117.788 343.324 116.694 343.324 115.629 343.126C114.564 342.928 113.47 342.928 112.405 343.126L112.534 341.811Z" fill="#E6E6E6"/>
<path d="M137.584 363.734H127.912C127.554 363.719 127.202 363.821 126.91 364.025C126.618 364.229 126.404 364.522 126.3 364.859C124.519 371.071 123.688 377.509 123.834 383.962C123.834 395.05 126.8 409.971 127.735 414.359C127.807 414.725 128.008 415.054 128.303 415.289C128.598 415.523 128.967 415.648 129.347 415.642H136.053C136.432 415.648 136.802 415.523 137.097 415.289C137.391 415.054 137.593 414.725 137.665 414.359C138.6 409.971 141.566 395.129 141.566 383.962C141.711 377.509 140.88 371.071 139.099 364.859C139 364.538 138.8 364.256 138.528 364.054C138.256 363.852 137.925 363.74 137.584 363.734Z" fill="#F0F0F0"/>
<path d="M403 676.384C575.617 676.384 715.551 668.356 715.551 658.453C715.551 648.55 575.617 640.522 403 640.522C230.383 640.522 90.4492 648.55 90.4492 658.453C90.4492 668.356 230.383 676.384 403 676.384Z" fill="#F5F5F5"/>
<path d="M194.697 596.804C194.434 596.787 194.187 596.671 194.009 596.478C193.832 596.286 193.737 596.034 193.746 595.774C194.939 549.22 197.373 472.856 197.502 472.428C197.588 472.174 197.769 471.962 198.009 471.835C198.249 471.708 198.529 471.677 198.792 471.747C199.053 471.827 199.271 472.005 199.401 472.242C199.53 472.479 199.561 472.756 199.485 473.014C199.485 473.109 196.986 549.743 195.793 595.822C195.791 595.954 195.762 596.085 195.708 596.206C195.654 596.327 195.576 596.437 195.479 596.528C195.381 596.62 195.266 596.691 195.14 596.738C195.015 596.786 194.88 596.808 194.746 596.804H194.697Z" fill="#263238"/>
<path d="M188.33 441.35C188.733 444.93 193.166 457.364 196.744 456.984C200.323 456.604 201.951 443.52 201.58 439.94C201.39 438.218 200.511 436.64 199.137 435.554C197.763 434.469 196.007 433.964 194.254 434.151C192.501 434.338 190.896 435.201 189.791 436.551C188.686 437.901 188.172 439.628 188.362 441.35H188.33Z" fill="#284B63"/>
<path d="M206.046 480.57C205.643 476.974 201.21 464.54 197.631 464.936C194.052 465.332 192.44 478.384 192.795 481.98C192.985 483.702 193.864 485.28 195.238 486.365C196.612 487.451 198.369 487.956 200.122 487.769C201.874 487.582 203.48 486.719 204.585 485.368C205.69 484.018 206.204 482.292 206.013 480.57H206.046Z" fill="#284B63"/>
<path d="M177.32 469.656C180.963 469.276 193.617 464.983 193.214 461.387C192.811 457.792 179.528 456.287 175.885 456.635C175.017 456.728 174.176 456.988 173.411 457.4C172.645 457.811 171.969 458.368 171.422 459.036C170.875 459.705 170.467 460.472 170.222 461.296C169.977 462.119 169.899 462.982 169.993 463.835C170.088 464.688 170.352 465.514 170.771 466.266C171.19 467.019 171.756 467.683 172.436 468.221C173.117 468.758 173.898 469.159 174.736 469.4C175.574 469.641 176.452 469.717 177.32 469.624V469.656Z" fill="#284B63"/>
<path d="M217.136 452.264C213.493 452.644 200.839 457.016 201.242 460.532C201.645 464.049 214.928 465.633 218.571 465.284C219.451 465.208 220.307 464.961 221.089 464.555C221.871 464.15 222.562 463.596 223.123 462.925C223.684 462.254 224.103 461.479 224.356 460.647C224.608 459.815 224.689 458.941 224.593 458.078C224.498 457.215 224.228 456.379 223.8 455.619C223.371 454.86 222.793 454.192 222.098 453.655C221.404 453.118 220.607 452.722 219.755 452.491C218.903 452.261 218.013 452.199 217.136 452.311V452.264Z" fill="#284B63"/>
<path d="M176.82 453.246C179.673 455.511 191.715 461.261 194.02 458.457C196.325 455.653 188.007 445.326 185.154 443.061C184.479 442.474 183.691 442.028 182.836 441.749C181.98 441.47 181.077 441.365 180.179 441.44C179.281 441.515 178.408 441.768 177.613 442.183C176.818 442.599 176.117 443.169 175.552 443.859C174.988 444.549 174.571 445.345 174.329 446.197C174.086 447.05 174.022 447.942 174.141 448.819C174.259 449.697 174.558 450.542 175.018 451.302C175.479 452.063 176.092 452.724 176.82 453.246Z" fill="#284B63"/>
<path d="M217.62 468.674C214.767 466.409 202.725 460.659 200.436 463.463C198.147 466.266 206.433 476.594 209.302 478.843C209.978 479.409 210.763 479.836 211.61 480.099C212.457 480.362 213.349 480.455 214.233 480.373C215.117 480.291 215.976 480.035 216.758 479.622C217.54 479.208 218.229 478.644 218.786 477.964C219.342 477.284 219.754 476.501 219.997 475.661C220.24 474.822 220.309 473.943 220.201 473.077C220.092 472.211 219.807 471.375 219.364 470.618C218.921 469.862 218.328 469.201 217.62 468.674Z" fill="#284B63"/>
<path d="M189.345 480.966C191.65 478.162 197.502 466.33 194.633 464.08C191.763 461.831 181.285 469.973 178.98 472.792C177.877 474.143 177.365 475.869 177.557 477.59C177.749 479.312 178.629 480.888 180.004 481.972C181.378 483.055 183.135 483.558 184.886 483.37C186.638 483.181 188.242 482.316 189.345 480.966Z" fill="#284B63"/>
<path d="M205.03 440.938C202.741 443.758 196.873 455.574 199.743 457.839C202.612 460.104 213.09 451.931 215.395 449.127C215.992 448.465 216.446 447.69 216.73 446.849C217.013 446.009 217.12 445.121 217.044 444.239C216.968 443.357 216.711 442.499 216.288 441.718C215.865 440.936 215.284 440.247 214.582 439.692C213.88 439.138 213.071 438.729 212.203 438.49C211.336 438.252 210.428 438.189 209.535 438.306C208.642 438.422 207.782 438.715 207.008 439.168C206.233 439.62 205.56 440.223 205.03 440.938Z" fill="#284B63"/>
<g opacity="0.6">
<path d="M188.33 441.35C188.733 444.93 193.166 457.364 196.744 456.984C200.323 456.604 201.951 443.52 201.58 439.94C201.39 438.218 200.511 436.64 199.137 435.554C197.763 434.469 196.007 433.964 194.254 434.151C192.501 434.338 190.896 435.201 189.791 436.551C188.686 437.901 188.172 439.628 188.362 441.35H188.33Z" fill="white"/>
<path d="M206.046 480.57C205.643 476.974 201.21 464.54 197.631 464.936C194.052 465.332 192.44 478.384 192.795 481.98C192.985 483.702 193.864 485.28 195.238 486.365C196.612 487.451 198.369 487.956 200.122 487.769C201.874 487.582 203.48 486.719 204.585 485.368C205.69 484.018 206.204 482.292 206.013 480.57H206.046Z" fill="white"/>
<path d="M177.32 469.656C180.963 469.276 193.617 464.983 193.214 461.387C192.811 457.792 179.528 456.287 175.885 456.635C175.017 456.728 174.176 456.988 173.411 457.4C172.645 457.811 171.969 458.368 171.422 459.036C170.875 459.705 170.467 460.472 170.222 461.296C169.977 462.119 169.899 462.982 169.993 463.835C170.088 464.688 170.352 465.514 170.771 466.266C171.19 467.019 171.756 467.683 172.436 468.221C173.117 468.758 173.898 469.159 174.736 469.4C175.574 469.641 176.452 469.717 177.32 469.624V469.656Z" fill="white"/>
<path d="M217.136 452.264C213.493 452.644 200.839 457.016 201.242 460.532C201.645 464.049 214.928 465.633 218.571 465.284C219.451 465.208 220.307 464.961 221.089 464.555C221.871 464.15 222.562 463.596 223.123 462.925C223.684 462.254 224.103 461.479 224.356 460.647C224.608 459.815 224.689 458.941 224.593 458.078C224.498 457.215 224.228 456.379 223.8 455.619C223.371 454.86 222.793 454.192 222.098 453.655C221.404 453.118 220.607 452.722 219.755 452.491C218.903 452.261 218.013 452.199 217.136 452.311V452.264Z" fill="white"/>
<path d="M176.82 453.246C179.674 455.511 191.715 461.261 194.02 458.457C196.326 455.653 188.008 445.326 185.154 443.061C184.48 442.474 183.691 442.028 182.836 441.749C181.981 441.47 181.077 441.365 180.18 441.44C179.282 441.515 178.409 441.768 177.614 442.183C176.818 442.599 176.117 443.169 175.553 443.859C174.988 444.549 174.572 445.345 174.329 446.197C174.087 447.05 174.023 447.942 174.141 448.819C174.26 449.697 174.558 450.542 175.019 451.302C175.479 452.063 176.092 452.724 176.82 453.246Z" fill="white"/>
<path d="M217.62 468.674C214.767 466.409 202.725 460.659 200.436 463.463C198.147 466.266 206.433 476.594 209.302 478.843C209.978 479.409 210.763 479.836 211.61 480.099C212.457 480.362 213.349 480.455 214.233 480.373C215.117 480.291 215.976 480.035 216.758 479.622C217.54 479.208 218.229 478.644 218.786 477.964C219.342 477.284 219.754 476.501 219.997 475.661C220.24 474.822 220.309 473.943 220.201 473.077C220.092 472.211 219.807 471.375 219.364 470.618C218.921 469.862 218.328 469.201 217.62 468.674Z" fill="white"/>
<path d="M189.346 480.966C191.651 478.162 197.502 466.33 194.633 464.08C191.764 461.831 181.286 469.973 178.981 472.792C177.877 474.143 177.366 475.869 177.558 477.59C177.75 479.312 178.63 480.888 180.004 481.972C181.379 483.055 183.135 483.558 184.887 483.37C186.639 483.181 188.243 482.316 189.346 480.966Z" fill="white"/>
<path d="M205.03 440.938C202.741 443.758 196.874 455.574 199.743 457.839C202.612 460.104 213.09 451.931 215.396 449.127C215.993 448.465 216.447 447.69 216.73 446.849C217.014 446.009 217.121 445.121 217.045 444.239C216.969 443.357 216.711 442.499 216.288 441.718C215.865 440.936 215.285 440.247 214.583 439.692C213.881 439.138 213.071 438.729 212.204 438.49C211.336 438.252 210.428 438.189 209.535 438.306C208.642 438.422 207.782 438.715 207.008 439.168C206.234 439.62 205.561 440.223 205.03 440.938Z" fill="white"/>
</g>
<path d="M189.361 461.799C189.533 463.318 190.158 464.752 191.158 465.921C192.159 467.091 193.489 467.943 194.982 468.37C196.475 468.796 198.063 468.779 199.546 468.32C201.028 467.86 202.339 466.98 203.313 465.789C204.286 464.598 204.879 463.15 205.016 461.628C205.153 460.106 204.828 458.579 204.082 457.239C203.336 455.898 202.203 454.805 200.825 454.097C199.447 453.39 197.887 453.099 196.341 453.262C195.312 453.37 194.314 453.677 193.406 454.165C192.497 454.654 191.696 455.313 191.047 456.106C190.399 456.9 189.916 457.811 189.627 458.788C189.337 459.765 189.247 460.788 189.361 461.799Z" fill="#284B63"/>
<path d="M190.216 562.7C181.14 562.89 165.601 554.653 159.491 546.607C153.382 538.56 170.678 543.439 168.873 537.103C167.068 530.767 145.644 535.519 141.662 526.3C137.681 517.081 153.156 519.188 152.527 514.483C151.899 509.779 135.875 510.777 130.701 501.019C125.526 491.262 139.647 496.679 137.423 492.64C135.198 488.601 117.482 471.573 124.865 467.993C132.248 464.413 148.852 482.138 154.413 484.118C159.975 486.098 161.232 473.806 168.454 479.651C175.676 485.496 170.372 511.188 178.883 514.499C185.219 517.002 182.494 505.264 189.781 508.163C202.483 513.343 193.827 562.621 190.216 562.7Z" fill="#284B63"/>
<g opacity="0.2">
<path d="M190.216 562.7C181.14 562.89 165.601 554.653 159.491 546.607C153.382 538.56 170.678 543.439 168.873 537.103C167.068 530.767 145.644 535.519 141.662 526.3C137.681 517.081 153.156 519.188 152.527 514.483C151.899 509.779 135.875 510.777 130.701 501.019C125.526 491.262 139.647 496.679 137.423 492.64C135.198 488.601 117.482 471.573 124.865 467.993C132.248 464.413 148.852 482.138 154.413 484.118C159.975 486.098 161.232 473.806 168.454 479.651C175.676 485.496 170.372 511.188 178.883 514.499C185.219 517.002 182.494 505.264 189.781 508.163C202.483 513.343 193.827 562.621 190.216 562.7Z" fill="white"/>
</g>
<path d="M203.193 551.375C203.338 551.628 201.984 552.959 206.417 553.069C217.459 553.513 237.045 552.784 244.315 542.916C254.793 528.834 230.645 530.133 233.031 522.324C235.416 514.515 261.321 520.898 266.383 509.81C271.445 498.722 252.568 500.892 253.487 495.174C254.406 489.456 274.153 496.869 280.681 485.1C287.21 473.331 269.913 479.635 272.621 474.756C275.33 469.878 297.446 449.634 288.548 445.104C279.65 440.574 259.032 461.768 252.23 464.112C245.427 466.456 243.847 445.611 234.917 452.565C225.986 459.518 231.838 490.866 221.408 494.762C213.638 497.661 217.878 486.415 208.287 486.842C195.278 487.365 190.99 531.337 203.193 551.375Z" fill="#284B63"/>
<g opacity="0.3">
<path d="M203.193 551.375C203.338 551.628 201.984 552.959 206.417 553.069C217.459 553.513 237.045 552.784 244.315 542.916C254.793 528.834 230.645 530.133 233.031 522.324C235.416 514.515 261.321 520.898 266.383 509.81C271.445 498.722 252.568 500.892 253.487 495.174C254.406 489.456 274.153 496.869 280.681 485.1C287.21 473.331 269.913 479.635 272.621 474.756C275.33 469.878 297.446 449.634 288.548 445.104C279.65 440.574 259.032 461.768 252.23 464.112C245.427 466.456 243.847 445.611 234.917 452.565C225.986 459.518 231.838 490.866 221.408 494.762C213.638 497.661 217.878 486.415 208.287 486.842C195.278 487.365 190.99 531.337 203.193 551.375Z" fill="white"/>
</g>
<path d="M194.923 589.771C194.828 589.761 194.736 589.733 194.653 589.687C194.569 589.642 194.496 589.58 194.437 589.506C194.378 589.432 194.336 589.347 194.311 589.257C194.286 589.166 194.281 589.072 194.294 588.979C203.354 516.115 246.088 486.462 246.523 486.177C246.6 486.125 246.687 486.089 246.779 486.07C246.871 486.051 246.965 486.05 247.057 486.066C247.149 486.083 247.237 486.118 247.315 486.168C247.394 486.218 247.462 486.283 247.514 486.359C247.567 486.435 247.605 486.521 247.624 486.611C247.643 486.701 247.644 486.794 247.627 486.884C247.61 486.975 247.575 487.061 247.524 487.138C247.472 487.215 247.406 487.281 247.329 487.333C246.91 487.634 204.708 516.938 195.745 589.153C195.733 589.247 195.702 589.338 195.654 589.42C195.606 589.502 195.542 589.574 195.466 589.631C195.389 589.689 195.302 589.731 195.209 589.755C195.115 589.779 195.018 589.784 194.923 589.771Z" fill="#263238"/>
<path d="M236.722 496.299C236.578 496.296 236.438 496.248 236.322 496.163C236.207 496.078 236.121 495.959 236.077 495.824C236.016 495.645 236.029 495.45 236.113 495.281C236.198 495.111 236.347 494.982 236.529 494.921C236.803 494.842 243.17 492.862 253.584 495.032C253.77 495.073 253.932 495.184 254.037 495.34C254.142 495.497 254.182 495.687 254.148 495.871C254.109 496.056 253.997 496.218 253.837 496.322C253.677 496.426 253.482 496.463 253.294 496.426C243.267 494.335 237.045 496.251 236.98 496.267C236.897 496.294 236.809 496.305 236.722 496.299Z" fill="#263238"/>
<path d="M228.904 505.153C228.719 505.149 228.542 505.074 228.413 504.944C228.283 504.814 228.211 504.639 228.211 504.457C227.985 482.407 240.978 465.189 241.107 465.015C241.224 464.871 241.393 464.777 241.578 464.751C241.764 464.724 241.952 464.768 242.106 464.872C242.183 464.929 242.247 464.999 242.295 465.079C242.344 465.16 242.376 465.249 242.389 465.342C242.403 465.434 242.397 465.529 242.374 465.62C242.35 465.71 242.309 465.795 242.251 465.87C242.122 466.029 229.355 482.898 229.646 504.441C229.646 504.627 229.571 504.806 229.439 504.939C229.306 505.072 229.126 505.149 228.936 505.153H228.904Z" fill="#263238"/>
<path d="M216.104 523.813C216.013 523.811 215.922 523.79 215.839 523.752C215.756 523.714 215.681 523.659 215.621 523.591C215.553 523.526 215.499 523.449 215.462 523.363C215.426 523.277 215.407 523.185 215.407 523.092C215.407 522.999 215.426 522.907 215.462 522.821C215.499 522.736 215.553 522.658 215.621 522.593C215.718 522.514 225.293 513.77 237.931 518.206C238.087 518.285 238.208 518.417 238.273 518.577C238.337 518.738 238.34 518.916 238.281 519.079C238.222 519.241 238.105 519.377 237.952 519.461C237.798 519.545 237.619 519.572 237.447 519.536C225.68 515.386 216.701 523.544 216.62 523.623C216.552 523.688 216.471 523.738 216.382 523.77C216.294 523.803 216.199 523.818 216.104 523.813Z" fill="#263238"/>
<path d="M209.447 536.833C209.312 536.825 209.183 536.781 209.072 536.705C208.961 536.63 208.874 536.526 208.818 536.406C205.632 527.647 204.837 518.221 206.513 509.066C206.527 508.974 206.559 508.885 206.608 508.806C206.657 508.726 206.722 508.657 206.798 508.603C206.875 508.548 206.962 508.509 207.054 508.488C207.146 508.467 207.242 508.464 207.335 508.48C207.522 508.511 207.69 508.613 207.801 508.764C207.913 508.915 207.96 509.103 207.932 509.288C206.337 518.182 207.098 527.329 210.14 535.851C210.177 535.936 210.197 536.026 210.199 536.118C210.2 536.21 210.184 536.301 210.149 536.386C210.115 536.472 210.063 536.55 209.998 536.616C209.933 536.681 209.855 536.734 209.769 536.77C209.668 536.814 209.558 536.835 209.447 536.833Z" fill="#263238"/>
<path d="M195.197 615.812C195.017 615.804 194.847 615.729 194.722 615.602C194.596 615.476 194.524 615.307 194.52 615.131L193.585 595.822C190.829 531.622 146.031 487.967 145.58 487.539C145.473 487.404 145.419 487.235 145.428 487.063C145.438 486.892 145.51 486.73 145.632 486.606C145.753 486.483 145.916 486.407 146.09 486.392C146.264 486.377 146.438 486.425 146.579 486.526C147.031 486.969 192.247 530.988 195.02 595.822L195.955 615.131C195.959 615.317 195.889 615.498 195.759 615.634C195.63 615.77 195.451 615.851 195.262 615.859L195.197 615.812Z" fill="#263238"/>
<path d="M164.053 511.632H163.94C163.864 511.627 163.791 511.599 163.73 511.553L163.489 511.474C157.661 509.08 151.396 507.883 145.08 507.957C144.89 507.961 144.706 507.893 144.567 507.765C144.429 507.638 144.346 507.462 144.338 507.276C144.336 507.182 144.353 507.089 144.387 507.002C144.422 506.915 144.473 506.835 144.539 506.767C144.605 506.7 144.684 506.645 144.771 506.608C144.858 506.57 144.952 506.549 145.047 506.547C151.577 506.472 158.054 507.7 164.085 510.159L164.311 510.254H164.44C164.583 510.322 164.697 510.436 164.765 510.577C164.832 510.719 164.849 510.879 164.81 511.03C164.786 511.206 164.694 511.367 164.553 511.479C164.413 511.591 164.233 511.646 164.053 511.632Z" fill="#263238"/>
<path d="M170.388 519.916C170.294 519.911 170.202 519.886 170.118 519.844C170.034 519.802 169.96 519.744 169.899 519.673C169.839 519.601 169.794 519.519 169.767 519.43C169.74 519.341 169.732 519.248 169.744 519.156C171.468 500.148 161.49 484.609 161.377 484.466C161.286 484.307 161.26 484.119 161.306 483.942C161.351 483.765 161.464 483.611 161.622 483.514C161.779 483.416 161.969 483.381 162.151 483.417C162.334 483.453 162.495 483.556 162.602 483.706C162.699 483.864 172.951 499.831 171.162 519.283C171.154 519.374 171.128 519.464 171.084 519.545C171.041 519.627 170.982 519.699 170.91 519.758C170.838 519.817 170.755 519.861 170.665 519.888C170.576 519.916 170.482 519.925 170.388 519.916Z" fill="#263238"/>
<path d="M176.933 530.893C176.751 530.89 176.577 530.816 176.45 530.688C174.052 528.556 171.153 527.043 168.012 526.285C164.872 525.527 161.589 525.549 158.46 526.347C158.274 526.396 158.076 526.369 157.91 526.274C157.743 526.179 157.622 526.023 157.573 525.84C157.549 525.751 157.543 525.658 157.556 525.566C157.569 525.474 157.6 525.386 157.648 525.307C157.696 525.227 157.76 525.157 157.836 525.102C157.911 525.047 157.997 525.007 158.089 524.985C161.459 524.099 165.002 524.07 168.387 524.902C171.771 525.733 174.884 527.397 177.433 529.737C177.501 529.802 177.554 529.88 177.591 529.965C177.628 530.051 177.647 530.143 177.647 530.236C177.647 530.329 177.628 530.421 177.591 530.507C177.554 530.593 177.501 530.67 177.433 530.735C177.364 530.793 177.285 530.837 177.199 530.864C177.113 530.891 177.023 530.901 176.933 530.893Z" fill="#263238"/>
<path d="M185.235 548.983C185.128 548.981 185.022 548.954 184.928 548.904C184.844 548.862 184.769 548.804 184.708 548.733C184.646 548.662 184.6 548.58 184.572 548.492C184.543 548.403 184.533 548.31 184.542 548.217C184.55 548.125 184.578 548.035 184.622 547.953C187.908 540.659 189.234 532.658 188.475 524.716C188.461 524.529 188.523 524.345 188.647 524.203C188.77 524.06 188.946 523.972 189.136 523.956C189.23 523.947 189.325 523.957 189.416 523.985C189.506 524.013 189.59 524.059 189.662 524.12C189.734 524.18 189.793 524.254 189.836 524.338C189.878 524.421 189.903 524.512 189.909 524.605C190.732 532.812 189.348 541.086 185.896 548.603C185.834 548.721 185.739 548.82 185.622 548.888C185.505 548.955 185.37 548.988 185.235 548.983Z" fill="#263238"/>
<path d="M235.61 618.853C235.61 641.362 225.293 659.625 194.085 659.625C164.295 659.625 152.576 641.362 152.576 618.853C152.57 610.678 155.069 602.691 159.749 595.932H228.436C233.116 602.691 235.616 610.678 235.61 618.853Z" fill="#284B63"/>
<path opacity="0.7" d="M235.61 618.853C235.61 641.362 225.293 659.625 194.085 659.625C164.295 659.625 152.576 641.362 152.576 618.853C152.57 610.678 155.069 602.691 159.749 595.932H228.436C233.116 602.691 235.616 610.678 235.61 618.853Z" fill="white"/>
<path d="M474.089 639.714L490.145 637.417L486.098 600.51L470.027 602.807L474.089 639.714Z" fill="#E8BFBF"/>
<path d="M502.493 637.972C503.884 637.867 505.2 637.31 506.232 636.388C506.448 636.119 506.595 635.803 506.659 635.466C506.724 635.13 506.705 634.783 506.603 634.455C506.556 634.253 506.457 634.065 506.316 633.91C506.175 633.755 505.997 633.638 505.797 633.568C503.653 632.808 497.737 637.069 497.125 637.544C497.059 637.592 497.01 637.659 496.984 637.736C496.958 637.812 496.957 637.894 496.979 637.972C497.006 638.043 497.055 638.104 497.118 638.146C497.182 638.189 497.257 638.211 497.334 638.209C499.057 638.281 500.784 638.201 502.493 637.972ZM504.749 634.265C504.988 634.211 505.236 634.211 505.475 634.265C505.559 634.291 505.635 634.339 505.694 634.403C505.753 634.467 505.795 634.545 505.813 634.63C505.88 634.847 505.893 635.077 505.851 635.3C505.808 635.523 505.713 635.733 505.571 635.913C504.749 636.91 502.122 637.497 498.479 637.497C500.387 636.095 502.523 635.024 504.798 634.329L504.749 634.265Z" fill="#284B63"/>
<path d="M497.431 638.225H497.56C499.349 637.069 502.557 633.046 501.945 631.319C501.819 631.015 501.589 630.764 501.294 630.611C500.999 630.457 500.659 630.411 500.333 630.479C499.947 630.491 499.568 630.579 499.218 630.74C498.869 630.901 498.557 631.13 498.301 631.414C496.577 633.378 496.915 637.75 496.915 637.877C496.916 637.94 496.931 638.003 496.959 638.06C496.987 638.118 497.027 638.169 497.076 638.209C497.131 638.236 497.191 638.252 497.252 638.254C497.313 638.257 497.374 638.247 497.431 638.225ZM500.123 631.224L500.349 631.113C501.058 631.113 501.139 631.351 501.155 631.43C501.542 632.491 499.398 635.58 497.624 637.006C497.464 635.183 497.898 633.357 498.866 631.794C499.206 631.448 499.666 631.239 500.155 631.208L500.123 631.224Z" fill="#284B63"/>
<path d="M488.436 630.876L474.202 634.218C473.893 634.279 473.619 634.451 473.431 634.699C473.243 634.948 473.156 635.256 473.187 635.564L473.654 655.824C473.701 656.16 473.816 656.483 473.991 656.776C474.165 657.068 474.397 657.324 474.673 657.528C474.948 657.733 475.262 657.882 475.596 657.967C475.93 658.052 476.278 658.072 476.62 658.025C476.722 658.034 476.824 658.034 476.926 658.025C483.084 656.441 486.002 655.491 493.836 653.701C498.672 652.624 513.873 651.483 520.112 648.759C526.35 646.034 523.916 639.825 521.079 640.411C511.923 642.344 500.123 638.495 493.498 632.634C492.659 632.143 489.484 630.638 488.436 630.876Z" fill="#263238"/>
<path opacity="0.2" d="M486.098 600.51L488.178 619.534L472.122 621.847L470.027 602.823L486.098 600.51Z" fill="black"/>
<path d="M494.674 611.709L464.965 617.158C464.965 617.158 450.538 596.915 447.813 582.548C444.976 567.579 448.007 516.637 447.813 516.02C439.415 488.141 416.573 415.911 405.563 389.3C399.453 374.568 395.166 364.653 395.166 364.653L398.244 363.971L422.505 354.214L440.237 357.477C440.237 357.477 493.933 464.191 499.559 504.33C503.701 534.267 494.674 611.709 494.674 611.709Z" fill="#284B63"/>
<path opacity="0.3" d="M494.674 611.709L464.965 617.158C464.965 617.158 450.538 596.915 447.813 582.548C444.976 567.579 448.007 516.637 447.813 516.02C439.415 488.141 416.573 415.911 405.563 389.3C399.453 374.568 395.166 364.653 395.166 364.653L398.244 363.971L422.505 354.214L440.237 357.477C440.237 357.477 493.933 464.191 499.559 504.33C503.701 534.267 494.674 611.709 494.674 611.709Z" fill="white"/>
<path opacity="0.2" d="M440.817 491.816C432.419 463.938 415.46 421.661 404.434 395.081L397.132 369.737L395.729 364.859L398.293 369.468L427.067 432.099C439.769 456.192 441.011 492.497 440.817 491.816Z" fill="black"/>
<path d="M310.423 631.034L324.737 636.958L340.003 604.755L325.705 598.831L310.423 631.034Z" fill="#E8BFBF"/>
<path d="M334.055 643.69C335.188 644.388 336.531 644.684 337.859 644.53C338.182 644.446 338.479 644.285 338.724 644.061C338.969 643.837 339.153 643.557 339.261 643.247C339.344 643.066 339.377 642.867 339.357 642.67C339.337 642.472 339.265 642.284 339.149 642.122C337.924 640.348 330.944 640.364 330.17 640.364C330.093 640.371 330.02 640.399 329.958 640.443C329.895 640.488 329.846 640.548 329.815 640.617C329.795 640.688 329.797 640.764 329.82 640.834C329.843 640.904 329.886 640.967 329.944 641.013C331.227 642.028 332.603 642.924 334.055 643.69ZM337.924 642.106C338.147 642.197 338.341 642.345 338.488 642.534C338.527 642.604 338.548 642.683 338.548 642.763C338.548 642.844 338.527 642.923 338.488 642.993C338.412 643.196 338.29 643.379 338.131 643.527C337.971 643.675 337.779 643.786 337.569 643.848C336.344 644.165 334.006 643.152 331.121 641.124C333.419 641.073 335.709 641.411 337.891 642.122L337.924 642.106Z" fill="#284B63"/>
<path d="M330.008 641.077H330.137C332.185 641.187 336.972 639.857 337.504 638.194C337.591 637.884 337.562 637.555 337.423 637.264C337.284 636.974 337.044 636.742 336.747 636.61C336.445 636.402 336.103 636.26 335.742 636.192C335.381 636.123 335.009 636.131 334.651 636.214C332.169 636.752 329.96 640.285 329.815 640.427C329.788 640.481 329.774 640.541 329.774 640.601C329.774 640.662 329.788 640.721 329.815 640.776C329.818 640.838 329.838 640.898 329.872 640.951C329.906 641.004 329.953 641.047 330.008 641.077ZM336.118 637.164H336.344C336.908 637.528 336.811 637.782 336.779 637.861C336.473 638.875 333.055 640.079 330.863 640.205C331.778 638.708 333.156 637.536 334.796 636.863C335.266 636.784 335.749 636.88 336.15 637.132L336.118 637.164Z" fill="#284B63"/>
<path d="M327.333 630.432L314.437 625.11C314.157 624.972 313.834 624.944 313.534 625.032C313.235 625.121 312.981 625.318 312.825 625.585L301.541 641.425C301.382 641.711 301.283 642.025 301.248 642.348C301.213 642.672 301.244 642.999 301.338 643.311C301.432 643.623 301.589 643.914 301.798 644.167C302.007 644.419 302.264 644.629 302.556 644.783L302.83 644.91C308.456 647.175 311.293 647.999 318.37 650.976C322.706 652.814 335.119 660.401 341.502 661.748C347.886 663.094 349.562 656.996 347.047 655.839C338.874 652.244 332.007 642.74 330.218 634.519C329.815 633.727 328.235 630.796 327.333 630.432Z" fill="#263238"/>
<path opacity="0.2" d="M340.631 605.135L332.362 621.53L318.192 615.289L326.446 598.879L340.631 605.135Z" fill="black"/>
<path d="M343.614 623.003L315.114 608.082C315.114 608.082 309.649 588.139 315.114 575.42C325.624 550.947 352.996 514.958 353.173 514.277C360.475 486.114 373.275 408.957 377.659 380.588C380.077 364.859 381.512 361.469 381.512 361.469L384.527 362.435L428.051 362.514C428.051 362.514 436.272 427.458 404.741 527.884C396.907 552.879 383.785 573.661 362.136 601.777C356.339 609.162 350.157 616.247 343.614 623.003Z" fill="#284B63"/>
<path opacity="0.3" d="M343.614 623.003L315.114 608.082C315.114 608.082 309.649 588.139 315.114 575.42C325.624 550.947 352.996 514.958 353.173 514.277C360.475 486.114 373.275 408.957 377.659 380.588C380.077 364.859 381.512 361.469 381.512 361.469L384.527 362.435L428.051 362.514C428.051 362.514 436.272 427.458 404.741 527.884C396.907 552.879 383.785 573.661 362.136 601.777C356.339 609.162 350.157 616.247 343.614 623.003Z" fill="white"/>
<path d="M466.771 309.498C467.431 304.35 469.649 299.516 473.138 295.622C474.025 294.703 477.426 293.309 479.36 292.074C488.823 285.975 507.78 278.356 507.78 278.356L513.631 283.362C513.631 283.362 502.089 294.323 495.222 299.582C493.868 300.627 492.305 301.879 490.66 303.209C487.662 305.649 473.605 314.757 470.929 317.053L466.771 309.498Z" fill="#E8BFBF"/>
<path d="M524.448 275.521L513.631 283.441L507.57 279.053C509.127 277.118 510.801 275.277 512.584 273.541C513.132 273.018 513.568 272.393 513.867 271.702C514.166 271.011 514.322 270.268 514.325 269.518C514.202 267.068 514.76 264.632 515.937 262.469C515.934 262.427 515.934 262.384 515.937 262.342C516.488 261.58 517.249 260.987 518.13 260.634C519.012 260.281 519.977 260.182 520.914 260.348C521.85 260.514 522.72 260.939 523.42 261.572C524.12 262.206 524.622 263.022 524.867 263.926L526.479 269.597C526.775 270.671 526.74 271.807 526.378 272.862C526.017 273.916 525.345 274.842 524.448 275.521Z" fill="#E8BFBF"/>
<path d="M470.22 311.62L467.367 314.186C466.48 313.489 465.078 312.365 463.305 310.908C449.409 299.582 414.574 272.084 428.453 264.243C440.366 257.511 453.004 278.087 459.307 284.28C462.266 287.38 464.832 290.822 466.948 294.529C469.914 299.788 472.106 306.14 470.22 311.62Z" fill="#263238"/>
<path d="M466.932 292.074C461.989 295.628 457.809 300.107 454.632 305.253C455.796 308.996 457.762 312.451 460.398 315.385C463.034 318.319 466.279 320.665 469.914 322.265C473.954 313.262 475.686 303.423 474.96 293.61C472.445 293.04 469.447 292.612 466.932 292.074Z" fill="#263238"/>
<path d="M390.443 262.643C385.462 264.227 379.771 262.944 376.579 267.015C373.388 271.086 372.437 276.424 372.437 281.556C372.73 288.695 373.844 295.778 375.757 302.671C377.756 311.119 379.76 319.54 381.77 327.936C383.14 333.701 381.689 360.487 383.156 360.93C383.156 360.93 428.728 360.059 440.157 358.475C440.157 358.475 441.14 330.945 442.059 321.568C442.268 319.493 445.476 310.654 445.847 308.436C447.636 297.982 444.138 290.616 440.463 280.637C440.463 280.637 432.403 264.686 428.454 264.243C421.441 263.467 404.29 258.192 390.443 262.643Z" fill="#263238"/>
<path d="M388.492 275.838C388.331 274.919 380.238 258.857 372.485 270.088C361.7 285.706 360.975 305.316 360.975 305.316C360.975 305.316 354.35 324.324 358.96 328.537C363.57 332.751 368.632 335.38 371.856 333.02C374.132 331.068 375.947 328.652 377.176 325.94C377.176 325.94 391.361 292.185 388.492 275.838Z" fill="#263238"/>
<path d="M387.992 256.687C387.206 257.383 386.592 258.245 386.197 259.21C385.803 260.174 385.638 261.215 385.716 262.251C385.794 263.288 386.112 264.293 386.646 265.19C387.18 266.087 387.917 266.852 388.798 267.427C388.325 269.055 388.33 270.782 388.811 272.408C389.293 274.035 390.232 275.494 391.52 276.62C392.808 277.745 394.394 278.49 396.094 278.769C397.794 279.048 399.539 278.85 401.13 278.198C399.776 280.606 401.307 283.789 403.677 285.278C406.176 286.549 408.926 287.273 411.737 287.401C414.559 287.533 417.266 288.536 419.474 290.268L428.083 278.087C429.347 276.598 430.167 274.794 430.452 272.876C430.533 270.959 429.05 268.836 427.099 268.979C428.077 267.942 428.622 266.582 428.624 265.168C428.627 263.754 428.088 262.392 427.115 261.351C426.141 260.31 424.804 259.668 423.37 259.552C421.937 259.437 420.511 259.856 419.378 260.726C419.516 259.896 419.403 259.043 419.053 258.275C418.704 257.506 418.133 256.855 417.411 256.402C415.946 255.534 414.284 255.038 412.575 254.961L387.992 256.687Z" fill="#263238"/>
<path d="M393.167 236.016C395.407 244.094 398.132 259 392.699 264.892C402.655 269.115 411.616 275.311 419.023 283.092C420.98 281.324 422.322 278.997 422.86 276.439C423.398 273.881 423.105 271.222 422.021 268.836C421.388 267.322 420.451 265.948 419.266 264.797C418.08 263.645 416.671 262.741 415.122 262.136C409.125 259.633 409.077 253.852 410.077 248.292L393.167 236.016Z" fill="#E8BFBF"/>
<path opacity="0.2" d="M396.552 249.781L402.21 251.286C404.635 251.933 407.171 252.079 409.657 251.713C409.449 253.426 409.63 255.163 410.189 256.798C408.295 257.517 406.23 257.679 404.244 257.266C402.258 256.852 400.437 255.881 399.002 254.47C397.955 253.033 397.13 251.454 396.552 249.781Z" fill="black"/>
<path d="M382.189 229.126C388.169 241.544 390.442 246.93 399.663 250.89C413.558 256.861 427.744 246.882 425.648 232.959C423.746 220.429 414.268 202.198 399.518 202.134C396.271 202.105 393.07 202.89 390.218 204.417C387.366 205.943 384.959 208.16 383.223 210.857C381.488 213.554 380.482 216.642 380.301 219.828C380.12 223.014 380.77 226.192 382.189 229.062V229.126Z" fill="#E8BFBF"/>
<path d="M388.766 205.397C384.397 203.401 378.981 205.033 375.338 208.169C371.695 211.306 369.389 215.836 367.278 220.192C366.006 222.509 365.031 224.973 364.376 227.526C363.724 230.109 364.081 232.839 365.376 235.176C366.066 236.269 367.011 237.184 368.132 237.848C369.253 238.512 370.518 238.904 371.824 238.994C372.627 239.043 373.401 239.306 374.063 239.755C374.725 240.205 375.249 240.823 375.58 241.544C375.91 242.876 375.91 244.267 375.58 245.599C375.273 246.891 375.273 248.235 375.58 249.528C376.019 250.544 376.74 251.418 377.661 252.051C378.581 252.684 379.664 253.05 380.786 253.107C383.031 253.169 385.268 252.814 387.379 252.062C388.023 251.846 388.713 251.803 389.379 251.936C390.044 252.07 390.662 252.376 391.168 252.822C391.426 253.055 391.644 253.328 391.812 253.63C391.977 253.905 392.216 254.13 392.502 254.279C392.789 254.429 393.112 254.498 393.435 254.478C393.759 254.458 394.071 254.351 394.337 254.168C394.602 253.984 394.811 253.733 394.94 253.44C396.89 248.878 394.053 241.608 389.83 236.016C387.589 233.07 387.702 233.814 386.831 230.234C386.09 227.256 387.202 224.152 388.556 221.396C390.378 217.705 392.699 214.125 391.974 209.722C391.837 208.799 391.473 207.923 390.914 207.169C390.356 206.416 389.618 205.807 388.766 205.397Z" fill="#263238"/>
<path d="M382.56 241.845C384.551 243.921 387.299 245.134 390.201 245.219C394.053 245.314 395.037 241.703 393.167 238.614C391.555 235.842 387.46 232.468 383.978 233.862C380.496 235.256 380.142 239.184 382.56 241.845Z" fill="#E8BFBF"/>
<path d="M406.224 226.924C406.675 228.001 407.562 228.587 408.255 228.302C408.948 228.017 409.126 226.987 408.739 225.926C408.352 224.865 407.417 224.342 406.708 224.548C405.998 224.754 405.853 225.878 406.224 226.924Z" fill="#263238"/>
<path d="M418.072 221.918C418.507 223.011 419.394 223.582 420.087 223.312C420.78 223.043 420.958 221.998 420.571 220.936C420.184 219.875 419.249 219.352 418.556 219.558C417.863 219.764 417.653 220.889 418.072 221.918Z" fill="#263238"/>
<path d="M418.25 219.748L420.49 218.022C420.49 218.022 420.007 220.477 418.25 219.748Z" fill="#263238"/>
<path d="M415.009 224.247C417.75 226.908 419.845 227.415 422.779 229.221C422.75 229.948 422.486 230.647 422.025 231.217C421.564 231.787 420.931 232.197 420.216 232.389L415.009 224.247Z" fill="#ED847E"/>
<path d="M418.959 237.473C419.472 237.288 419.968 237.06 420.442 236.792C420.516 236.752 420.572 236.684 420.596 236.604C420.62 236.524 420.611 236.438 420.571 236.364C420.524 236.293 420.452 236.241 420.369 236.217C420.286 236.194 420.197 236.201 420.119 236.238C418.886 236.942 417.5 237.346 416.076 237.418C414.651 237.489 413.23 237.226 411.93 236.65C411.851 236.611 411.759 236.604 411.675 236.63C411.591 236.657 411.52 236.715 411.479 236.792C411.456 236.829 411.442 236.871 411.436 236.913C411.431 236.956 411.434 237 411.446 237.041C411.458 237.083 411.479 237.122 411.507 237.155C411.534 237.188 411.569 237.216 411.608 237.236C412.755 237.755 413.996 238.044 415.259 238.085C416.521 238.126 417.779 237.918 418.959 237.473Z" fill="#263238"/>
<path d="M405.837 218.291C405.829 218.436 405.775 218.576 405.682 218.689C405.59 218.803 405.464 218.885 405.321 218.925C402.226 219.828 400.856 223.677 400.856 223.677C400.827 223.762 400.782 223.841 400.722 223.909C400.663 223.977 400.59 224.033 400.508 224.073C400.427 224.114 400.338 224.138 400.247 224.145C400.156 224.151 400.064 224.14 399.977 224.112C399.89 224.084 399.81 224.04 399.741 223.981C399.672 223.922 399.615 223.851 399.574 223.771C399.532 223.691 399.508 223.603 399.501 223.514C399.494 223.424 399.505 223.334 399.534 223.249C399.647 223.091 401.146 218.671 404.918 217.562C405.097 217.518 405.288 217.542 405.449 217.63C405.611 217.718 405.733 217.864 405.788 218.038C405.827 218.117 405.843 218.204 405.837 218.291Z" fill="#263238"/>
<path d="M420.103 216.422C419.983 216.506 419.84 216.551 419.692 216.551C419.545 216.551 419.401 216.506 419.281 216.422C416.767 214.426 412.753 215.519 412.737 215.535C412.649 215.562 412.556 215.571 412.465 215.562C412.373 215.554 412.284 215.527 412.203 215.484C412.122 215.442 412.051 215.383 411.993 215.313C411.935 215.243 411.892 215.162 411.866 215.076C411.815 214.901 411.836 214.714 411.923 214.555C412.011 214.395 412.158 214.275 412.334 214.22C412.527 214.22 417.17 212.921 420.152 215.329C420.292 215.446 420.381 215.611 420.402 215.79C420.423 215.97 420.374 216.15 420.265 216.295C420.219 216.347 420.164 216.389 420.103 216.422Z" fill="#263238"/>
<path d="M406.482 224.722L408.723 223.011C408.723 223.011 408.207 225.467 406.482 224.722Z" fill="#263238"/>
<path d="M389.733 203.322C387.969 203.475 386.263 204.019 384.744 204.914C383.225 205.808 381.933 207.03 380.964 208.486C379.674 210.45 379.223 213.428 381.125 214.822C382.095 215.404 383.213 215.706 384.349 215.693C389.185 216.121 395.295 212.399 395.295 212.399C393.409 204.479 410.222 198.428 418.507 210.624C420.942 214.204 420.281 216.802 424.327 218.465C426.229 219.241 428.744 219.02 429.969 220.667C431.984 223.376 428.099 227.969 430.565 230.298C432.258 231.882 436.094 231.28 436.336 233.577C436.433 234.654 435.724 236.206 436.771 236.523C437.352 236.697 437.9 236.174 438.271 235.699C439.278 234.636 440.018 233.356 440.431 231.961C440.627 231.264 440.584 230.522 440.307 229.852C440.03 229.181 439.535 228.62 438.899 228.254C437.868 227.795 435.143 228.254 435.321 229.395C434.903 226.883 434.768 224.333 434.918 221.792C435.369 219.669 437.432 217.816 436.804 215.725C436.175 213.634 433.451 212.557 431.113 212.272C428.776 211.987 426.116 211.654 424.665 209.817C423.215 207.979 423.795 204.811 423.279 202.261C422.847 200.667 422.038 199.196 420.918 197.968C419.797 196.741 418.397 195.791 416.831 195.196C407.401 191.221 392.941 191.791 389.733 203.322Z" fill="#263238"/>
<path d="M416.283 245.52L384.043 261.439C378.917 263.963 374.939 268.282 372.892 273.544C370.845 278.807 370.878 284.632 372.984 289.872L388.492 328.838C390.584 334.074 394.589 338.353 399.723 340.841C404.857 343.328 410.75 343.843 416.251 342.287L450.909 332.466C453.982 331.6 456.837 330.112 459.292 328.098C461.746 326.085 463.745 323.59 465.161 320.773C466.577 317.956 467.379 314.879 467.514 311.74C467.65 308.601 467.116 305.469 465.948 302.544L447.975 257.527C446.816 254.599 445.049 251.94 442.785 249.722C440.521 247.504 437.811 245.774 434.828 244.644C431.845 243.514 428.655 243.008 425.461 243.159C422.268 243.31 419.142 244.114 416.283 245.52ZM410.947 312.428C408.373 313.42 405.558 313.639 402.857 313.058C400.156 312.477 397.692 311.122 395.775 309.164C393.858 307.206 392.575 304.734 392.088 302.06C391.602 299.386 391.933 296.63 393.041 294.141C394.148 291.652 395.982 289.541 398.31 288.076C400.639 286.612 403.357 285.858 406.121 285.912C408.885 285.965 411.571 286.823 413.839 288.377C416.107 289.93 417.855 292.11 418.862 294.64C419.54 296.322 419.873 298.12 419.842 299.929C419.811 301.738 419.416 303.523 418.681 305.182C417.945 306.841 416.884 308.341 415.556 309.595C414.229 310.85 412.663 311.834 410.947 312.492V312.428Z" fill="#284B63"/>
<path d="M416.283 245.52L384.043 261.439C378.917 263.963 374.939 268.282 372.892 273.544C370.845 278.807 370.878 284.632 372.984 289.872L388.492 328.838C390.584 334.074 394.589 338.353 399.723 340.841C404.857 343.328 410.75 343.843 416.251 342.287L450.909 332.466C453.982 331.6 456.837 330.112 459.292 328.098C461.746 326.085 463.745 323.59 465.161 320.773C466.577 317.956 467.379 314.879 467.514 311.74C467.65 308.601 467.116 305.469 465.948 302.544L447.975 257.527C446.816 254.599 445.049 251.94 442.785 249.722C440.521 247.504 437.811 245.774 434.828 244.644C431.845 243.514 428.655 243.008 425.461 243.159C422.268 243.31 419.142 244.114 416.283 245.52ZM410.947 312.428C408.373 313.42 405.558 313.639 402.857 313.058C400.156 312.477 397.692 311.122 395.775 309.164C393.858 307.206 392.575 304.734 392.088 302.06C391.602 299.386 391.933 296.63 393.041 294.141C394.148 291.652 395.982 289.541 398.31 288.076C400.639 286.612 403.357 285.858 406.121 285.912C408.885 285.965 411.571 286.823 413.839 288.377C416.107 289.93 417.855 292.11 418.862 294.64C419.54 296.322 419.873 298.12 419.842 299.929C419.811 301.738 419.416 303.523 418.681 305.182C417.945 306.841 416.884 308.341 415.556 309.595C414.229 310.85 412.663 311.834 410.947 312.492V312.428Z" fill="#284B63"/>
<path opacity="0.1" d="M465.949 302.544L447.975 257.527C446.816 254.599 445.049 251.94 442.785 249.722C440.521 247.504 437.811 245.774 434.828 244.644C431.845 243.514 428.655 243.008 425.461 243.159C422.268 243.31 419.142 244.114 416.283 245.52L406.917 250.272L400.63 253.44L384.059 261.629C378.976 264.147 375.027 268.433 372.98 273.653C370.933 278.872 370.935 284.653 372.985 289.872L388.492 328.838C390.584 334.074 394.589 338.353 399.723 340.841C404.857 343.328 410.75 343.843 416.251 342.287L450.925 332.466C453.669 331.688 456.239 330.409 458.501 328.696C460.201 327.438 461.705 325.944 462.966 324.261C465.307 321.191 466.809 317.584 467.331 313.783C467.853 309.982 467.377 306.113 465.949 302.544ZM410.947 312.46C408.374 313.447 405.562 313.663 402.864 313.081C400.166 312.499 397.705 311.144 395.79 309.188C393.875 307.232 392.593 304.762 392.106 302.091C391.619 299.42 391.948 296.666 393.052 294.178C394.156 291.691 395.985 289.58 398.309 288.113C400.633 286.646 403.347 285.889 406.108 285.936C408.87 285.984 411.555 286.835 413.825 288.381C416.095 289.927 417.848 292.1 418.862 294.624C419.543 296.307 419.878 298.106 419.848 299.917C419.818 301.728 419.424 303.515 418.688 305.176C417.953 306.837 416.89 308.338 415.561 309.594C414.233 310.849 412.665 311.834 410.947 312.492V312.46Z" fill="white"/>
<path d="M416.605 248.561L386.38 263.483C381.585 265.848 377.862 269.889 375.942 274.812C374.021 279.735 374.042 285.185 375.999 290.094L390.587 326.621C392.537 331.543 396.288 335.571 401.105 337.915C405.921 340.259 411.455 340.751 416.621 339.293L449.119 330.074C451.996 329.259 454.668 327.862 456.965 325.974C459.262 324.086 461.132 321.748 462.457 319.109C463.781 316.471 464.531 313.589 464.657 310.649C464.784 307.71 464.285 304.776 463.192 302.037L446.346 259.776C445.255 257.032 443.592 254.543 441.465 252.466C439.339 250.389 436.795 248.772 433.995 247.716C431.196 246.661 428.204 246.191 425.21 246.336C422.215 246.482 419.284 247.24 416.605 248.561ZM392.828 304.714C391.82 302.185 391.598 299.42 392.19 296.767C392.782 294.114 394.161 291.693 396.152 289.81C398.144 287.927 400.659 286.667 403.38 286.189C406.1 285.71 408.904 286.035 411.437 287.122C413.969 288.209 416.117 290.01 417.609 292.296C419.1 294.583 419.868 297.252 419.816 299.968C419.763 302.683 418.893 305.322 417.314 307.551C415.735 309.78 413.52 311.5 410.947 312.492C409.238 313.153 407.413 313.476 405.576 313.443C403.74 313.41 401.928 313.021 400.245 312.298C398.561 311.576 397.04 310.534 395.767 309.232C394.495 307.931 393.496 306.396 392.828 304.714Z" fill="#284B63"/>
<path opacity="0.1" d="M416.605 248.561L386.38 263.483C381.585 265.848 377.862 269.889 375.942 274.812C374.021 279.735 374.042 285.185 375.999 290.094L390.587 326.621C392.537 331.543 396.288 335.571 401.105 337.915C405.921 340.259 411.455 340.751 416.621 339.293L449.119 330.074C451.996 329.259 454.668 327.862 456.965 325.974C459.262 324.086 461.132 321.748 462.457 319.109C463.781 316.471 464.531 313.589 464.657 310.649C464.784 307.71 464.285 304.776 463.192 302.037L446.346 259.776C445.255 257.032 443.592 254.543 441.465 252.466C439.339 250.389 436.795 248.772 433.995 247.716C431.196 246.661 428.204 246.191 425.21 246.336C422.215 246.482 419.284 247.24 416.605 248.561ZM392.828 304.714C391.82 302.185 391.598 299.42 392.19 296.767C392.782 294.114 394.161 291.693 396.152 289.81C398.144 287.927 400.659 286.667 403.38 286.189C406.1 285.71 408.904 286.035 411.437 287.122C413.969 288.209 416.117 290.01 417.609 292.296C419.1 294.583 419.868 297.252 419.816 299.968C419.763 302.683 418.893 305.322 417.314 307.551C415.735 309.78 413.52 311.5 410.947 312.492C409.238 313.153 407.413 313.476 405.576 313.443C403.74 313.41 401.928 313.021 400.245 312.298C398.561 311.576 397.04 310.534 395.767 309.232C394.495 307.931 393.496 306.396 392.828 304.714Z" fill="#284B63"/>
<path d="M566.811 234.432L565.892 236.016L565.377 236.935L563.91 239.548L564.522 246.249C564.555 246.532 564.522 246.819 564.425 247.088C564.326 247.38 564.163 247.647 563.949 247.871C563.735 248.095 563.474 248.271 563.184 248.387L550.449 253.282C550.158 253.396 549.845 253.443 549.532 253.421C549.219 253.399 548.916 253.308 548.644 253.155C548.464 253.066 548.3 252.948 548.16 252.806L540.955 245.599L530.702 249.543L532.185 253.266L521.949 257.194L524.383 263.324L516.855 266.223C516.554 266.337 516.232 266.388 515.91 266.372C515.588 266.355 515.273 266.272 514.985 266.128C514.789 266.036 514.609 265.913 514.453 265.764L510.117 261.756L499.865 265.684L502.315 271.814L491.547 275.964L493.997 282.11C494.093 282.35 494.141 282.605 494.136 282.862C494.131 283.119 494.075 283.373 493.97 283.609C493.865 283.844 493.714 284.057 493.525 284.235C493.336 284.413 493.113 284.552 492.869 284.645L463.385 295.986L450.586 263.91L557.268 222.869L558.88 223.708L564.28 226.449C564.993 226.796 565.626 227.282 566.142 227.876C566.659 228.471 567.047 229.162 567.283 229.908C567.52 230.655 567.6 231.44 567.519 232.218C567.438 232.995 567.197 233.749 566.811 234.432Z" fill="#284B63"/>
<g opacity="0.1">
<path d="M566.811 234.432L565.892 236.016L565.377 236.935L563.91 239.548L564.522 246.249C564.555 246.532 564.522 246.819 564.425 247.088C564.326 247.38 564.163 247.647 563.949 247.871C563.735 248.095 563.474 248.271 563.184 248.387L550.449 253.282C550.158 253.396 549.845 253.443 549.532 253.421C549.219 253.399 548.916 253.308 548.644 253.155C548.464 253.066 548.3 252.948 548.16 252.806L540.955 245.599L530.702 249.543L532.185 253.266L521.949 257.194L524.383 263.324L516.855 266.223C516.554 266.337 516.232 266.388 515.91 266.372C515.588 266.355 515.273 266.272 514.985 266.128C514.789 266.036 514.609 265.913 514.453 265.764L510.117 261.756L499.865 265.684L502.315 271.814L491.547 275.964L493.997 282.11C494.093 282.35 494.141 282.605 494.136 282.862C494.131 283.119 494.075 283.373 493.97 283.609C493.865 283.844 493.714 284.057 493.525 284.235C493.336 284.413 493.113 284.552 492.869 284.645L463.385 295.986L450.586 263.91L557.268 222.869L558.88 223.708L564.28 226.449C564.993 226.796 565.626 227.282 566.142 227.876C566.659 228.471 567.047 229.162 567.283 229.908C567.52 230.655 567.6 231.44 567.519 232.218C567.438 232.995 567.197 233.749 566.811 234.432Z" fill="white"/>
</g>
<path d="M566.392 230.82L452.327 274.697L449.006 266.46L557.752 224.627L563.168 227.352C565.232 228.397 566.408 229.363 566.392 230.82Z" fill="#284B63"/>
<path opacity="0.1" d="M566.392 230.82L452.327 274.697L449.006 266.46L557.752 224.627L563.168 227.352C565.232 228.397 566.408 229.363 566.392 230.82Z" fill="black"/>
<path d="M564.2 236.998L563.104 239.437C563.095 239.479 563.095 239.522 563.104 239.564L563.732 246.185C563.774 246.421 563.774 246.662 563.732 246.898C563.722 246.938 563.702 246.974 563.674 247.005C563.646 247.035 563.61 247.058 563.571 247.072L549.724 252.426C549.69 252.446 549.651 252.456 549.611 252.456C549.572 252.456 549.533 252.446 549.498 252.426C549.36 252.345 549.235 252.243 549.128 252.125L541.197 244.3C541.156 244.273 541.108 244.259 541.06 244.259C541.011 244.259 540.963 244.273 540.923 244.3L529.639 248.64C529.577 248.668 529.527 248.718 529.501 248.779C529.474 248.841 529.471 248.91 529.493 248.973L530.831 252.315C530.844 252.347 530.851 252.38 530.851 252.414C530.851 252.447 530.844 252.481 530.83 252.512C530.816 252.543 530.797 252.571 530.772 252.594C530.747 252.617 530.718 252.636 530.686 252.648L521.095 256.355C521.063 256.367 521.034 256.385 521.009 256.409C520.985 256.432 520.965 256.46 520.951 256.491C520.938 256.522 520.931 256.555 520.93 256.589C520.93 256.623 520.937 256.656 520.95 256.687L523.255 262.437C523.271 262.468 523.279 262.502 523.28 262.536C523.281 262.571 523.275 262.605 523.261 262.636C523.247 262.668 523.226 262.696 523.2 262.719C523.174 262.742 523.143 262.76 523.11 262.77L516.082 265.494C516.047 265.514 516.008 265.524 515.969 265.524C515.929 265.524 515.89 265.514 515.856 265.494C515.709 265.412 515.573 265.311 515.453 265.193L510.295 260.536C510.255 260.514 510.211 260.502 510.166 260.502C510.12 260.502 510.076 260.514 510.037 260.536L498.865 264.861C498.832 264.871 498.801 264.888 498.775 264.911C498.749 264.934 498.729 264.962 498.715 264.994C498.701 265.026 498.694 265.06 498.695 265.094C498.696 265.129 498.705 265.162 498.72 265.193L501.074 271.086C501.089 271.117 501.098 271.15 501.099 271.185C501.1 271.219 501.093 271.253 501.08 271.285C501.066 271.317 501.045 271.345 501.019 271.368C500.993 271.391 500.962 271.408 500.929 271.418L458.034 288.003C457.971 288.024 457.903 288.021 457.844 287.994C457.784 287.968 457.736 287.92 457.711 287.86L453.294 277.2C453.272 277.137 453.275 277.068 453.301 277.006C453.328 276.945 453.377 276.895 453.439 276.867L565.215 233.64C565.264 233.622 565.316 233.619 565.367 233.631C565.417 233.643 565.462 233.669 565.497 233.707C565.532 233.744 565.554 233.791 565.561 233.841C565.569 233.892 565.56 233.943 565.538 233.988L564.2 236.998Z" fill="#284B63"/>
<path opacity="0.1" d="M564.2 236.998L563.104 239.437C563.095 239.479 563.095 239.522 563.104 239.564L563.732 246.185C563.774 246.421 563.774 246.662 563.732 246.898C563.722 246.938 563.702 246.974 563.674 247.005C563.646 247.035 563.61 247.058 563.571 247.072L549.724 252.426C549.69 252.446 549.651 252.456 549.611 252.456C549.572 252.456 549.533 252.446 549.498 252.426C549.36 252.345 549.235 252.243 549.128 252.125L541.197 244.3C541.156 244.273 541.108 244.259 541.06 244.259C541.011 244.259 540.963 244.273 540.923 244.3L529.639 248.64C529.577 248.668 529.527 248.718 529.501 248.779C529.474 248.841 529.471 248.91 529.493 248.973L530.831 252.315C530.844 252.347 530.851 252.38 530.851 252.414C530.851 252.447 530.844 252.481 530.83 252.512C530.816 252.543 530.797 252.571 530.772 252.594C530.747 252.617 530.718 252.636 530.686 252.648L521.095 256.355C521.063 256.367 521.034 256.385 521.009 256.409C520.985 256.432 520.965 256.46 520.951 256.491C520.938 256.522 520.931 256.555 520.93 256.589C520.93 256.623 520.937 256.656 520.95 256.687L523.255 262.437C523.271 262.468 523.279 262.502 523.28 262.536C523.281 262.571 523.275 262.605 523.261 262.636C523.247 262.668 523.226 262.696 523.2 262.719C523.174 262.742 523.143 262.76 523.11 262.77L516.082 265.494C516.047 265.514 516.008 265.524 515.969 265.524C515.929 265.524 515.89 265.514 515.856 265.494C515.709 265.412 515.573 265.311 515.453 265.193L510.295 260.536C510.255 260.514 510.211 260.502 510.166 260.502C510.12 260.502 510.076 260.514 510.037 260.536L498.865 264.861C498.832 264.871 498.801 264.888 498.775 264.911C498.749 264.934 498.729 264.962 498.715 264.994C498.701 265.026 498.694 265.06 498.695 265.094C498.696 265.129 498.705 265.162 498.72 265.193L501.074 271.086C501.089 271.117 501.098 271.15 501.099 271.185C501.1 271.219 501.093 271.253 501.08 271.285C501.066 271.317 501.045 271.345 501.019 271.368C500.993 271.391 500.962 271.408 500.929 271.418L458.034 288.003C457.971 288.024 457.903 288.021 457.844 287.994C457.784 287.968 457.736 287.92 457.711 287.86L453.294 277.2C453.272 277.137 453.275 277.068 453.301 277.006C453.328 276.945 453.377 276.895 453.439 276.867L565.215 233.64C565.264 233.622 565.316 233.619 565.367 233.631C565.417 233.643 565.462 233.669 565.497 233.707C565.532 233.744 565.554 233.791 565.561 233.841C565.569 233.892 565.56 233.943 565.538 233.988L564.2 236.998Z" fill="black"/>
<path opacity="0.3" d="M399.888 283.536C396.664 284.781 393.888 286.937 391.91 289.732C389.933 292.527 388.843 295.835 388.778 299.239C388.713 302.642 389.676 305.988 391.546 308.854C393.416 311.72 396.108 313.976 399.282 315.339C402.457 316.702 405.971 317.109 409.381 316.51C412.791 315.911 415.944 314.332 418.442 311.973C420.939 309.614 422.668 306.58 423.412 303.255C424.155 299.931 423.879 296.464 422.618 293.293C421.783 291.182 420.531 289.254 418.935 287.62C417.339 285.986 415.43 284.678 413.318 283.771C411.205 282.864 408.932 282.377 406.627 282.336C404.322 282.296 402.032 282.704 399.888 283.536ZM410.947 312.523C408.373 313.515 405.557 313.734 402.857 313.153C400.156 312.572 397.691 311.217 395.775 309.259C393.858 307.301 392.575 304.829 392.088 302.155C391.601 299.481 391.933 296.725 393.04 294.236C394.148 291.747 395.982 289.636 398.31 288.171C400.638 286.707 403.357 285.953 406.121 286.007C408.885 286.06 411.571 286.918 413.839 288.472C416.107 290.025 417.855 292.205 418.862 294.735C420.201 298.121 420.12 301.892 418.637 305.22C417.153 308.548 414.388 311.163 410.947 312.492V312.523Z" fill="white"/>
<path opacity="0.1" d="M462.983 324.245C461.727 325.928 460.228 327.422 458.533 328.68L400.614 253.297C400.614 253.297 405.724 250.779 406.885 250.019C406.894 250.103 406.922 250.184 406.966 250.256C409.448 255.531 454.971 313.632 462.983 324.245Z" fill="white"/>
<path opacity="0.1" d="M454.584 331.056C454.229 331.214 437.352 336.267 437.352 336.267L418.54 311.795C421.378 309.007 423.157 305.346 423.578 301.424C423.999 297.502 423.038 293.556 420.854 290.247C418.67 286.939 415.396 284.467 411.58 283.245C407.764 282.023 403.637 282.126 399.889 283.536C399.111 283.822 398.361 284.177 397.648 284.597L381.012 262.944C381.012 262.944 395.633 256.101 397.245 255.024C397.68 258.081 454.584 330.422 454.584 331.056Z" fill="white"/>
<path d="M385.574 212.161C384.629 213.264 383.953 214.565 383.6 215.965C383.246 217.364 383.224 218.825 383.536 220.234C383.847 221.643 384.484 222.964 385.396 224.093C386.308 225.223 387.472 226.132 388.798 226.75C390.185 227.383 391.7 227.684 393.054 228.334C393.761 228.614 394.385 229.064 394.869 229.642C395.353 230.22 395.683 230.909 395.827 231.644C395.988 233.228 394.747 234.812 394.876 236.396C395.014 237.138 395.307 237.843 395.738 238.467C396.168 239.092 396.725 239.622 397.374 240.024C398.68 240.825 399.782 241.909 400.598 243.192C400.781 243.517 400.894 243.877 400.93 244.247C400.966 244.618 400.923 244.992 400.805 245.346C400.687 245.699 400.496 246.025 400.244 246.303C399.992 246.581 399.685 246.805 399.341 246.961C399.167 247.263 399.076 247.605 399.076 247.951C399.076 248.298 399.167 248.639 399.341 248.941C399.548 249.147 399.819 249.279 400.111 249.317C400.403 249.354 400.699 249.294 400.953 249.147C402.099 248.443 403.05 247.472 403.722 246.32C404.395 245.167 404.767 243.87 404.805 242.542C404.79 241.226 404.398 239.942 403.674 238.835C402.95 237.729 401.923 236.845 400.711 236.285C400.557 235.811 400.503 235.312 400.55 234.816C400.597 234.321 400.745 233.84 400.985 233.402C401.71 231.597 402.452 229.775 403.193 227.969C403.312 227.526 403.332 227.063 403.252 226.612C403.171 226.161 402.992 225.732 402.726 225.356C402.176 224.812 401.51 224.395 400.775 224.136L396.02 222.14C394.231 221.38 388.895 214.379 395.214 212.335C394.834 211.543 394.238 210.869 393.493 210.388C392.748 209.907 391.882 209.638 390.991 209.611C389.943 209.561 388.9 209.768 387.954 210.213C387.009 210.658 386.191 211.328 385.574 212.161Z" fill="#263238"/>
<path d="M394.198 204.621L393.715 210.149C395.327 207.615 398.212 202.689 398.116 202.879C396.874 203.544 395.44 203.956 394.198 204.621Z" fill="#263238"/>
<path d="M396.326 207.647L402.935 201.643C402.075 201.35 401.148 201.302 400.262 201.504C399.375 201.706 398.564 202.149 397.922 202.784C397.97 202.641 396.939 205.714 396.326 207.647Z" fill="#263238"/>
<path d="M382.898 357.509C374.306 367.995 377.159 376.026 365.295 394.59C380.27 405.488 396.681 407.262 417.072 405.678C419.49 401.481 420.699 397.109 423.117 392.911C426.567 397.125 429.34 400.657 432.789 404.886C443.477 403.302 456.179 400.277 464.626 394.923C457.163 386.512 452.52 376.01 447.749 366.744C445.508 362.388 446.443 360.566 440.495 354.864C421.554 355.719 402.774 356.162 383.849 357.034C384.365 357.113 382.398 357.477 382.898 357.509Z" fill="#263238"/>
<path d="M385.268 355.751L384.091 360.645C383.914 361.041 384.381 361.405 385.01 361.358L437.223 359.093C437.421 359.116 437.622 359.071 437.79 358.963C437.958 358.856 438.083 358.695 438.141 358.507L438.416 353.644C438.416 353.327 437.98 353.042 437.432 353.089L386.155 355.307C385.98 355.3 385.807 355.337 385.652 355.415C385.497 355.492 385.365 355.608 385.268 355.751Z" fill="#284B63"/>
<path d="M385.268 355.751L384.091 360.645C383.914 361.041 384.381 361.405 385.01 361.358L437.223 359.093C437.421 359.116 437.622 359.071 437.79 358.963C437.958 358.856 438.083 358.695 438.141 358.507L438.416 353.644C438.416 353.327 437.98 353.042 437.432 353.089L386.155 355.307C385.98 355.3 385.807 355.337 385.652 355.415C385.497 355.492 385.365 355.608 385.268 355.751Z" fill="#284B63"/>
<path d="M396.761 361.374H395.246C394.956 361.374 394.714 361.247 394.73 361.073L395.133 354.737C395.133 354.547 395.407 354.388 395.697 354.388L397.229 354.309C397.503 354.309 397.745 354.436 397.729 354.626L397.326 360.962C397.309 361.152 397.052 361.358 396.761 361.374Z" fill="#263238"/>
<path d="M434.45 359.774H432.935C432.644 359.774 432.403 359.647 432.419 359.473L432.822 353.137C432.822 352.947 433.096 352.773 433.386 352.773H434.901C435.191 352.773 435.417 352.899 435.401 353.074L434.998 359.41C434.998 359.568 434.756 359.758 434.45 359.774Z" fill="#263238"/>
<path d="M403.5 330.612C403.596 331.072 407.642 337.408 410.834 336.948C411.288 336.887 411.75 336.944 412.175 337.113C412.599 337.283 412.971 337.559 413.252 337.915C414.526 339.499 415.299 340.481 416.154 341.558C416.831 342.408 417.783 343.006 418.852 343.254C419.922 343.501 421.045 343.384 422.038 342.92C422.634 342.651 423.23 342.35 423.827 342.033C424.79 341.539 425.555 340.74 426 339.766C426.444 338.792 426.542 337.699 426.277 336.663C425.686 334.328 424.769 332.084 423.553 329.995C423.193 329.251 422.637 328.616 421.941 328.157C418.59 326.898 415.082 326.088 411.511 325.75C408.771 325.86 406.095 329.472 403.5 330.612Z" fill="#E8BFBF"/>
<path d="M411.672 325.56C411.672 325.56 368.825 312.808 359.572 321.299C354.14 326.288 356.703 331.008 359.75 333.971C362.006 336.236 366.923 335.681 370.147 335.555L403.902 332.292L411.672 325.56Z" fill="#E8BFBF"/>
<path d="M387.041 319.73C386.848 318.597 386.372 317.529 385.654 316.622C384.937 315.715 384.001 314.998 382.93 314.535C380.784 313.641 378.502 313.106 376.176 312.951L360.056 310.939C357.159 314.45 355.532 318.807 355.43 323.326C355.544 327.696 357.17 331.898 360.04 335.238C362.619 330.343 366.021 325.306 371.05 322.867C376.079 320.427 381.528 318.748 387.041 319.73Z" fill="#263238"/>
<path opacity="0.1" d="M375.999 242.828C375.999 242.733 375.999 242.685 375.999 242.669C376.336 242.574 376.288 242.637 375.999 242.828Z" fill="white"/>
<path d="M482.456 174.652L494.384 196.416L543.099 155.771C543.184 155.698 543.239 155.596 543.251 155.485C543.264 155.375 543.233 155.264 543.166 155.174C543.1 155.084 543.001 155.022 542.89 155.001C542.779 154.979 542.664 155 542.567 155.058L496.899 184.679L489.871 171.183L482.456 174.652Z" fill="#284B63"/>
<path d="M455.535 218.006L475.234 196.416C472.281 193.591 469.924 190.222 468.298 186.501C466.671 182.78 465.807 178.78 465.755 174.731C465.755 154.804 486.969 138.6 513.051 138.6C539.133 138.6 560.364 154.804 560.364 174.731C560.364 194.658 539.133 210.846 513.051 210.846C503.872 210.924 494.811 208.809 486.647 204.684L455.535 218.006ZM513.051 140.691C488.13 140.691 467.915 155.976 467.915 174.763C467.981 178.705 468.862 182.593 470.506 186.191C472.149 189.788 474.52 193.019 477.475 195.687L478.184 196.368L463.595 212.351L486.824 202.435L487.275 202.673C495.226 206.778 504.086 208.89 513.067 208.819C538.005 208.819 558.284 193.549 558.284 174.763C558.284 155.976 537.989 140.691 513.051 140.691Z" fill="#284B63"/>
</svg>
