<svg width="16" height="16" viewBox="0 0 16 16" fill="none" xmlns="http://www.w3.org/2000/svg">
<path d="M7.26931 1.40009L13.869 2.34289L14.8118 8.94255L8.68351 15.0708C8.42317 15.3312 8.00111 15.3312 7.74071 15.0708L1.14107 8.47115C0.880712 8.21082 0.880712 7.78868 1.14107 7.52835L7.26931 1.40009ZM7.74071 2.8143L2.55528 7.99975L8.21211 13.6566L13.3976 8.47115L12.6905 3.52141L7.74071 2.8143ZM9.15497 7.05695C8.63424 6.53624 8.63424 5.69202 9.15497 5.17132C9.67564 4.65062 10.5198 4.65062 11.0406 5.17132C11.5612 5.69202 11.5612 6.53624 11.0406 7.05695C10.5198 7.57762 9.67564 7.57762 9.15497 7.05695Z" fill="#284B63"/>
</svg>
