<svg width="16" height="16" viewBox="0 0 16 16" fill="none" xmlns="http://www.w3.org/2000/svg">
<path d="M4.00309 5.99998H13.2954L13.6287 4.66665H5.33643V3.33331H14.4826C14.8508 3.33331 15.1492 3.63179 15.1492 3.99998C15.1492 4.05449 15.1426 4.10879 15.1293 4.16167L13.4626 10.8283C13.3885 11.1251 13.1218 11.3333 12.8159 11.3333H3.33643C2.96824 11.3333 2.66976 11.0348 2.66976 10.6666V2.66665H1.33643V1.33331H3.33643C3.70462 1.33331 4.00309 1.63179 4.00309 1.99998V5.99998ZM4.00309 15.3333C3.26671 15.3333 2.66976 14.7364 2.66976 14C2.66976 13.2636 3.26671 12.6666 4.00309 12.6666C4.73947 12.6666 5.33643 13.2636 5.33643 14C5.33643 14.7364 4.73947 15.3333 4.00309 15.3333ZM12.0031 15.3333C11.2667 15.3333 10.6698 14.7364 10.6698 14C10.6698 13.2636 11.2667 12.6666 12.0031 12.6666C12.7395 12.6666 13.3364 13.2636 13.3364 14C13.3364 14.7364 12.7395 15.3333 12.0031 15.3333Z" fill="white"/>
</svg>
