<svg width="16" height="16" viewBox="0 0 16 16" fill="none" xmlns="http://www.w3.org/2000/svg">
<path d="M14.0036 2C14.3718 2 14.6703 2.29848 14.6703 2.66667V6.33333C13.7498 6.33333 13.0036 7.07953 13.0036 8C13.0036 8.92047 13.7498 9.66667 14.6703 9.66667V13.3333C14.6703 13.7015 14.3718 14 14.0036 14H2.00358C1.63539 14 1.33691 13.7015 1.33691 13.3333V9.66667C2.25739 9.66667 3.00358 8.92047 3.00358 8C3.00358 7.07953 2.25739 6.33333 1.33691 6.33333V2.66667C1.33691 2.29848 1.63539 2 2.00358 2H14.0036ZM13.3369 3.33333H2.67025V5.312L2.77417 5.36605C3.66656 5.85403 4.28377 6.78233 4.33365 7.8588L4.33691 8C4.33691 9.13613 3.70536 10.1247 2.77417 10.6339L2.67025 10.6873V12.6667H13.3369V10.6873L13.233 10.6339C12.3406 10.146 11.7234 9.21767 11.6735 8.1412L11.6703 8C11.6703 6.86387 12.3018 5.87525 13.233 5.36605L13.3369 5.312V3.33333Z" fill="#284B63"/>
</svg>
