<svg width="29" height="28" viewBox="0 0 29 28" fill="none" xmlns="http://www.w3.org/2000/svg">
<path d="M8.32 0C3.7312 0 0 3.67746 0 8.20017V19.5543C0 24.077 3.7312 27.7544 8.32 27.7544H19.84C24.4288 27.7544 28.16 24.077 28.16 19.5543V8.20017C28.16 3.67746 24.4288 0 19.84 0H8.32ZM21.76 5.04626C22.464 5.04626 23.04 5.61396 23.04 6.30782C23.04 7.00168 22.464 7.56939 21.76 7.56939C21.056 7.56939 20.48 7.00168 20.48 6.30782C20.48 5.61396 21.056 5.04626 21.76 5.04626ZM14.08 6.93861C17.9648 6.93861 21.12 10.0484 21.12 13.8772C21.12 17.7061 17.9648 20.8158 14.08 20.8158C10.1952 20.8158 7.04 17.7061 7.04 13.8772C7.04 10.0484 10.1952 6.93861 14.08 6.93861ZM14.08 8.20017C10.9056 8.20017 8.32 10.7485 8.32 13.8772C8.32 17.0059 10.9056 19.5543 14.08 19.5543C17.2544 19.5543 19.84 17.0059 19.84 13.8772C19.84 10.7485 17.2544 8.20017 14.08 8.20017Z" fill="black"/>
</svg>
