<svg width="20" height="20" viewBox="0 0 20 20" fill="none" xmlns="http://www.w3.org/2000/svg">
<path d="M10 0C15.52 0 20 4.41548 20 9.85597C20 15.2965 15.52 19.7119 10 19.7119C4.48 19.7119 0 15.2965 0 9.85597C0 4.41548 4.48 0 10 0ZM10 4.92799C7.24 4.92799 5 7.13573 5 9.85597C5 12.5762 7.24 14.784 10 14.784C11.8195 14.784 13.413 13.8245 14.2878 12.3912L12.5729 11.3779C12.0484 12.2378 11.0926 12.8128 10 12.8128C8.3425 12.8128 7 11.4896 7 9.85597C7 8.22235 8.3425 6.89918 10 6.89918C11.0931 6.89918 12.0491 7.4746 12.5735 8.335L14.2878 7.32073C13.413 5.88747 11.8195 4.92799 10 4.92799Z" fill="black"/>
</svg>
