<svg width="27" height="27" viewBox="0 0 27 27" fill="none" xmlns="http://www.w3.org/2000/svg">
<path d="M23.68 0H3.2C1.4336 0 0 1.41295 0 3.15391V23.3389C0 25.0799 1.4336 26.4929 3.2 26.4929H23.68C25.4464 26.4929 26.88 25.0799 26.88 23.3389V3.15391C26.88 1.41295 25.4464 0 23.68 0ZM8.32 10.0925V22.0774H4.48V10.0925H8.32ZM4.48 6.60429C4.48 5.7212 5.248 5.04626 6.4 5.04626C7.552 5.04626 8.2752 5.7212 8.32 6.60429C8.32 7.48739 7.6032 8.20017 6.4 8.20017C5.248 8.20017 4.48 7.48739 4.48 6.60429ZM22.4 22.0774H18.56C18.56 22.0774 18.56 16.2363 18.56 15.7696C18.56 14.508 17.92 13.2464 16.32 13.2212H16.2688C14.72 13.2212 14.08 14.5206 14.08 15.7696C14.08 16.3436 14.08 22.0774 14.08 22.0774H10.24V10.0925H14.08V11.7073C14.08 11.7073 15.3152 10.0925 17.7984 10.0925C20.3392 10.0925 22.4 11.8146 22.4 15.3028V22.0774Z" fill="black"/>
</svg>
